<?xml version="1.0" encoding="UTF-8" standalone="no"?>
<svg
   id="Layer_1"
   data-name="Layer 1"
   width="168.77"
   height="83.38"
   viewBox="0 0 168.77 83.38"
   version="1.1"
   sodipodi:docname="stick.svg"
   xml:space="preserve"
   inkscape:version="1.2.1 (9c6d41e410, 2022-07-14)"
   xmlns:inkscape="http://www.inkscape.org/namespaces/inkscape"
   xmlns:sodipodi="http://sodipodi.sourceforge.net/DTD/sodipodi-0.dtd"
   xmlns="http://www.w3.org/2000/svg"
   xmlns:svg="http://www.w3.org/2000/svg"><sodipodi:namedview
     id="namedview99"
     pagecolor="#ffffff"
     bordercolor="#000000"
     borderopacity="0.25"
     inkscape:showpageshadow="2"
     inkscape:pageopacity="0.0"
     inkscape:pagecheckerboard="0"
     inkscape:deskcolor="#d1d1d1"
     showgrid="false"
     inkscape:zoom="3.8168766"
     inkscape:cx="7.9908269"
     inkscape:cy="20.042566"
     inkscape:window-width="2560"
     inkscape:window-height="1351"
     inkscape:window-x="2391"
     inkscape:window-y="-9"
     inkscape:window-maximized="1"
     inkscape:current-layer="Layer_1" /><defs
     id="defs57"><style
       id="style55">
      .cls-1 {
        fill: #1a1a1a;
      }

      .cls-2 {
        fill: #404040;
      }

      .cls-3 {
        fill: #262626;
      }

      .cls-4 {
        opacity: 0.06;
      }

      .cls-5 {
        fill: #fff;
      }

      .cls-6 {
        fill: #212121;
      }

      .cls-7 {
        fill: #e5e5e5;
      }

      .cls-8 {
        fill: #bfbfbf;
      }

      .cls-9 {
        fill: #d9d9d9;
      }

      .cls-10 {
        fill: #dedede;
      }
    </style></defs><g
     id="g63"><path
       class="cls-1"
       d="M 168.77,41.7 A 41.69,41.69 0 1 1 127.07,0 a 41.68,41.68 0 0 1 41.7,41.7 z"
       id="path59" /><path
       class="cls-2"
       d="m 127.07,0 h -1.26 -0.75 l 1,20 q 0.52,0 1,0 V 0 Z m -4,0.19 h -0.16 -0.15 c -0.56,0.06 -1.12,0.13 -1.67,0.21 l 2.84,19.79 c 0.35,0 0.69,-0.09 1,-0.12 z m -3.95,0.57 h -0.09 -0.43 c -0.48,0.1 -1,0.2 -1.44,0.32 l 4.74,19.43 c 0.33,-0.08 0.67,-0.16 1,-0.22 z m -3.89,1 -0.8,0.24 v 0 h -0.06 v 0 h -0.06 v 0 0 l -0.93,0.31 6.59,18.88 c 0.32,-0.11 0.65,-0.22 1,-0.31 L 115.23,1.71 Z M 111.46,3 c -0.62,0.25 -1.23,0.52 -1.84,0.8 L 118,22 c 0.32,-0.15 0.63,-0.29 1,-0.42 z m -3.63,1.7 c -0.59,0.31 -1.18,0.63 -1.75,1 l 10.09,17.28 c 0.29,-0.18 0.6,-0.35 0.9,-0.51 z m -3.45,2 c -0.56,0.36 -1.11,0.73 -1.66,1.13 l 11.7,16.22 0.86,-0.59 -10.9,-16.74 z m -3.25,2.33 q -0.78,0.63 -1.53,1.29 l 13.18,15 c 0.27,-0.23 0.53,-0.45 0.81,-0.67 L 101.13,9.05 Z m -3,2.64 -0.84,0.84 v 0 0 0 0 0 0 0 l -0.43,0.45 14.56,13.71 c 0.24,-0.25 0.49,-0.5 0.74,-0.74 L 98.12,11.69 Z m -2.75,2.93 v 0 0 0 0 0 0 0 c -0.38,0.45 -0.74,0.9 -1.1,1.36 v 0 l 15.8,12.26 c 0.21,-0.27 0.44,-0.54 0.66,-0.81 l -15.2,-13 z m -2.45,3.16 -0.15,0.23 v 0 0 0 c -0.32,0.46 -0.63,0.92 -0.93,1.39 l 16.9,10.7 c 0.19,-0.29 0.38,-0.59 0.58,-0.87 z m -2.14,3.38 -0.45,0.81 v 0 c -0.17,0.31 -0.33,0.62 -0.49,0.93 l 17.85,9 c 0.15,-0.31 0.32,-0.62 0.49,-0.92 L 90.79,21.09 Z M 89,24.71 88.8,25.16 v 0 0.06 0 0.06 0 c -0.18,0.42 -0.35,0.84 -0.52,1.27 l 18.63,7.26 c 0.13,-0.32 0.26,-0.64 0.4,-1 z m -1.45,3.72 c -0.09,0.27 -0.18,0.54 -0.26,0.81 v 0 0 0 0 0 0 0 0 0 0 0 0 0 0 0 0 0 0 0 0 0 0 0 0 0 0 0 0 0 0 0 c 0,0 0,0 0,0 v 0 0 0 0 0 c -0.06,0.18 -0.11,0.36 -0.16,0.55 l 19.24,5.43 c 0.1,-0.33 0.2,-0.66 0.31,-1 l -19,-6.35 z m -1.09,3.85 q -0.18,0.8 -0.33,1.59 c 0,0.13 -0.05,0.25 -0.07,0.37 l 19.68,3.55 c 0.06,-0.34 0.13,-0.68 0.21,-1 l -19.49,-4.5 z m -0.71,3.94 -0.15,1.28 v 0 0 0 0 0 0 0 l -0.06,0.59 19.93,1.66 c 0,-0.35 0.07,-0.7 0.12,-1 l -19.84,-2.6 z m -0.33,4 c 0,0.32 0,0.64 0,1 v 0 0 0 0.06 0 0.24 0 0 0 0 0 0 0 0 0 0 0 0 0 0.4 l 20,-0.23 v 0.01 c 0,-0.26 0,-0.53 0,-0.79 l -20,-0.71 z m 20,2.82 -20,1.18 c 0,0.57 0.08,1.14 0.13,1.7 v 0 0 0 0 0 0 0 c 0,0.06 0,0.12 0,0.18 l 19.89,-2.13 c 0,-0.34 -0.07,-0.69 -0.09,-1 z m 0.23,2.08 -19.76,3.06 v 0 0 0 0 0 0 c 0.09,0.53 0.18,1.05 0.28,1.57 v 0 0 0 0 0 0 0 c 0,0.05 0,0.11 0,0.17 l 19.59,-4 q -0.1,-0.51 -0.18,-1 z m 0.41,2 -19.37,5 c 0.17,0.65 0.35,1.29 0.54,1.93 l 19.11,-5.9 c -0.1,-0.33 -0.19,-0.67 -0.28,-1 z m 0.61,2 -18.8,6.81 c 0.23,0.63 0.47,1.25 0.73,1.87 l 18.45,-7.72 c -0.13,-0.32 -0.26,-0.64 -0.38,-1 z m 0.8,1.9 -18.06,8.58 c 0,0.07 0.07,0.15 0.11,0.22 v 0 0 0 c 0.17,0.37 0.36,0.73 0.55,1.1 v 0 0 0 0 0 0 0 l 0.17,0.32 17.63,-9.45 c -0.16,-0.31 -0.32,-0.62 -0.47,-0.93 z m 1,1.83 -17.17,10.27 0.3,0.48 v 0 0 0 0 0 c 0.24,0.38 0.49,0.77 0.74,1.14 L 109,53.71 c -0.19,-0.29 -0.38,-0.58 -0.56,-0.88 z m 1.16,1.73 -16.11,11.87 0.23,0.3 v 0 0 0 0 0 0 0 0 0 0 0 0 0 0 0 0 0 0 0 0 0 0 0 0 0 0 0 c 0.23,0.3 0.47,0.6 0.71,0.89 L 109.96,55 c -0.22,-0.27 -0.44,-0.55 -0.64,-0.83 z m 1.32,1.62 -14.9,13.35 c 0.45,0.49 0.9,1 1.37,1.45 l 14.23,-14.06 c -0.25,-0.24 -0.49,-0.5 -0.72,-0.76 z m 1.47,1.49 -13.56,14.7 0.76,0.68 h 0.06 v 0 0 l 0.67,0.57 12.82,-15.35 c -0.27,-0.22 -0.54,-0.46 -0.79,-0.69 z M 114,59 l -12.07,16 0.93,0.68 0.69,0.48 11.3,-16.5 z m 1.72,1.18 -10.49,17 0.1,0.07 v 0 0 0 c 0.5,0.3 1,0.6 1.52,0.88 v 0 l 9.66,-17.51 -0.9,-0.52 z m 1.82,1 -8.81,18 0.34,0.17 h 0.16 v 0 0 c 0.42,0.2 0.84,0.39 1.27,0.57 l 7.93,-18.36 c -0.31,-0.13 -0.63,-0.28 -0.94,-0.43 z m 1.9,0.82 -7,18.72 c 0.63,0.24 1.25,0.45 1.89,0.66 l 6.13,-19 -1,-0.34 z m 2,0.63 -5.23,19.37 0.24,0.06 h 0.2 q 0.75,0.2 1.5,0.36 l 4.26,-19.55 c -0.34,-0.07 -0.67,-0.15 -1,-0.24 z m 2,0.44 -3.31,19.73 c 0.5,0.08 1,0.16 1.51,0.22 l 0.47,0.06 2.36,-19.86 c -0.35,0 -0.69,-0.09 -1,-0.15 z m 2.07,0.25 -1.41,20 h 0.4 0.09 1 0.54 l 0.47,-20 c -0.35,0 -0.71,0 -1,0 z m 3.16,0 -1,0.05 0.47,20 h 0.57 0.12 l 1.19,-0.06 h 0.12 l -1.42,-20 z m 2.07,-0.25 c -0.34,0.06 -0.69,0.11 -1,0.15 l 2.37,19.86 c 0.62,-0.08 1.23,-0.16 1.83,-0.26 h 0.15 l -3.32,-19.73 z m 2,-0.44 c -0.33,0.09 -0.67,0.17 -1,0.24 L 136,82.42 h 0.22 0.2 l 0.76,-0.18 h 0.36 L 138,82 132.8,62.68 Z m 2,-0.63 -1,0.34 6.14,19 0.92,-0.31 h 0.2 l 0.77,-0.29 -7,-18.71 z m 1.9,-0.83 -0.94,0.44 7.92,18.39 c 0.35,-0.15 0.7,-0.3 1,-0.47 h 0.16 l 0.61,-0.29 -8.81,-18 z m 1.82,-1 c -0.3,0.18 -0.6,0.36 -0.9,0.52 l 9.67,17.51 0.18,-0.1 v 0 0 h 0.1 v 0 0 c 0.47,-0.26 0.92,-0.53 1.37,-0.8 l -10.49,-17 z m 1.7,-1.17 c -0.28,0.21 -0.56,0.42 -0.85,0.61 l 11.3,16.5 c 0.25,-0.17 0.51,-0.35 0.75,-0.53 v 0 0 0 0 0 0 h 0.15 v 0 0 l 0.6,-0.45 z m 1.6,-1.34 c -0.25,0.24 -0.52,0.47 -0.78,0.69 L 153.8,73.7 h 0.34 v 0 0 0 0 c 0.34,-0.28 0.66,-0.57 1,-0.86 h 0.06 v 0 0 0 0 z m 1.47,-1.49 c -0.23,0.26 -0.47,0.52 -0.72,0.77 l 14.23,14 v 0 0 0 c 0.31,-0.32 0.62,-0.64 0.92,-1 v 0 0 0 0 0 0 0 l 0.32,-0.35 z m 1.32,-1.61 c -0.2,0.27 -0.42,0.55 -0.64,0.82 L 159.41,68 v 0 0 0 0 0 0 0 0 0 0 0 c 0.2,-0.26 0.41,-0.52 0.61,-0.79 v 0 0 0 0 0 0 0 0 l 0.36,-0.47 z m 1.16,-1.74 c -0.18,0.3 -0.37,0.59 -0.56,0.88 l 16.64,11.1 0.14,-0.21 v 0 0 c 0.31,-0.47 0.61,-0.95 0.9,-1.43 v 0 0 0 z m 1,-1.83 c -0.15,0.32 -0.31,0.63 -0.47,0.93 l 17.63,9.45 0.27,-0.51 c 0.14,-0.28 0.28,-0.55 0.41,-0.83 v 0 0 0 0 0 0 0 c 0,-0.11 0.1,-0.22 0.16,-0.33 L 146.69,51 Z m 0.8,-1.9 c -0.12,0.32 -0.25,0.64 -0.38,1 l 18.45,7.71 0.29,-0.69 v 0 0 0 0 0 0 0 c 0.14,-0.36 0.27,-0.71 0.4,-1.06 l -18.8,-6.81 z m 0.6,-2 c -0.08,0.33 -0.18,0.67 -0.28,1 l 19.1,5.91 0.12,-0.41 v 0 0 0 0 0 0 0 0 0 0 0 0 0 0 0 0 0 0 0 0 l 0.33,-1.21 -19.38,-5 z m 0.42,-2 c 0,0.34 -0.12,0.68 -0.18,1 l 19.59,4 c 0.11,-0.57 0.22,-1.15 0.31,-1.72 0,-0.09 0,-0.17 0,-0.25 l -19.76,-3.07 z m 0.22,-2.08 c 0,0.35 0,0.7 -0.08,1 l 19.88,2.13 c 0,-0.24 0.05,-0.47 0.07,-0.71 v 0 0 0 0 0 0 c 0,-0.38 0.06,-0.76 0.08,-1.14 v -0.06 l -20,-1.18 z m 20,-2.82 -20,0.71 c 0,0.27 0,0.53 0,0.8 V 42 l 20,0.23 v -0.43 0 0 0 0 0 0 0 -0.09 0 0 0 -0.17 0 0 0 -0.34 0 0 0 c 0,-0.15 0,-0.29 0,-0.44 v 0 -0.09 0 -0.15 0 c 0,-0.09 0,-0.18 0,-0.27 z m -0.33,-4 -19.83,2.61 c 0,0.34 0.08,0.69 0.11,1 l 19.93,-1.66 c 0,-0.16 0,-0.31 0,-0.47 v 0 0 0 0 0 0 0 0 0 c 0,-0.46 -0.1,-0.92 -0.16,-1.37 z m -0.71,-3.93 -19.49,4.5 c 0.08,0.33 0.15,0.68 0.21,1 l 19.68,-3.56 -0.18,-0.95 v 0 0 0 0 0 0 0 0 0 0 0 0 0 0 0 0 0 0 0 0 0 0 0 l -0.06,-0.32 v 0 -0.06 0 0 0 l -0.06,-0.24 z m -1.09,-3.85 -19,6.36 q 0.16,0.49 0.3,1 l 19.25,-5.44 v 0 0 0 0 0 0 0 c -0.14,-0.49 -0.29,-1 -0.45,-1.46 v 0 0 0 c 0,-0.1 -0.07,-0.19 -0.1,-0.29 z m -1.45,-3.73 -18.27,8.17 c 0.14,0.32 0.27,0.64 0.4,1 l 18.63,-7.27 c -0.24,-0.62 -0.5,-1.24 -0.77,-1.85 z M 163.36,21.11 146,31 c 0.17,0.3 0.34,0.61 0.49,0.92 l 17.85,-9 c -0.27,-0.52 -0.54,-1 -0.83,-1.55 v 0 0 0 0 0 0 0 0 0 0 0 0 0 0 0 z m -2.14,-3.37 -16.36,11.5 c 0.2,0.28 0.39,0.57 0.58,0.86 l 16.89,-10.7 -0.13,-0.2 v 0 0 0 l -0.66,-1 v 0 0 0 l -0.27,-0.38 z m -2.45,-3.16 -15.19,13 q 0.33,0.39 0.66,0.81 L 160,16.14 159.89,15.99 v 0 0 0 0 0 0 0 0 0 0 0 0 0 0 0 0 0 0 0 0 0 0 0 0 0 0 0 0 0 0 0 0 0 0 0 0 0 0 0 0 0 0 0 0 0 0 0 0 0 0 0 0 0 0 0 0 0 0 0 0 0 0 0 0 0 0 0 0 0 0 0 0 0 0 0 0 0 0 0 0 0 0 0 l -0.13,-0.15 z m -2.77,-2.9 -13.89,14.4 0.74,0.74 14.57,-13.72 v 0 c -0.46,-0.49 -0.92,-1 -1.4,-1.42 z M 153,9 140.56,24.7 c 0.27,0.21 0.54,0.44 0.8,0.67 l 13.18,-15 -0.23,-0.21 v 0 0 0 z m -3.25,-2.33 -10.88,16.81 c 0.29,0.19 0.58,0.38 0.86,0.59 L 151.42,7.84 151,7.51 h -0.06 l -0.51,-0.36 h -0.08 L 149.8,6.79 Z m -3.45,-2 -9.24,17.74 c 0.31,0.16 0.61,0.33 0.91,0.5 L 148.06,5.66 147.63,5.41 v 0 h -0.06 v 0 0 0 c -0.4,-0.23 -0.8,-0.44 -1.21,-0.66 z M 142.68,3 l -7.49,18.54 0.95,0.41 8.38,-18.16 h -0.32 c -0.5,-0.23 -1,-0.44 -1.52,-0.65 z m -3.78,-1.3 -5.66,19.18 1,0.32 6.59,-18.89 -1.34,-0.44 h -0.15 l -0.42,-0.13 z m -3.9,-0.94 -3.79,19.63 1,0.22 L 137,1.18 h -0.23 l -0.82,-0.19 h -0.23 c -0.23,-0.06 -0.45,-0.1 -0.67,-0.14 z m -4,-0.57 -1.83,19.91 c 0.35,0 0.7,0.07 1,0.12 l 2.88,-19.8 -0.5,-0.06 h -0.21 l -0.9,-0.1 h -0.11 -0.27 z M 127,0 v 20 h 1.06 L 129,0 c -0.41,0 -0.81,0 -1.22,0 z"
       id="path61" /></g><path
     class="cls-3"
     d="M 127.07,2 A 39.69,39.69 0 1 1 87.39,41.7 39.75,39.75 0 0 1 127.07,2 m 0,-2 A 41.69,41.69 0 1 0 168.77,41.7 41.69,41.69 0 0 0 127.07,0 Z"
     id="path65"
     style="fill:#6a6b6d;fill-opacity:1" /><g
     class="cls-4"
     id="g69"><path
       class="cls-5"
       d="m 163.09,41.7 a 36,36 0 1 1 -36,-36 36,36 0 0 1 36,36 z"
       id="path67" /></g><g
     id="g75"
     style="fill:#6a6b6d;fill-opacity:1"><path
       class="cls-6"
       d="M 127.07,69.83 A 28.13,28.13 0 1 1 155.2,41.7 28.15,28.15 0 0 1 127.07,69.83 Z"
       id="path71"
       style="fill:#6a6b6d;fill-opacity:1" /><path
       class="cls-1"
       d="M 127.07,16.58 A 25.13,25.13 0 1 1 102,41.7 25.15,25.15 0 0 1 127.12,16.58 m 0,-6 A 31.13,31.13 0 1 0 158.2,41.7 31.12,31.12 0 0 0 127.07,10.58 Z"
       id="path73"
       style="fill:#6a6b6d;fill-opacity:1" /></g><g
     id="LS_pressed"
     data-name="LS pressed"><g
       id="g83"><path
         class="cls-7"
         d="M83.39,41.7A41.7,41.7,0,1,1,41.69,0,41.69,41.69,0,0,1,83.39,41.7Z"
         id="path79" /><path
         class="cls-8"
         d="M41.69,0H40.43l-.75,0,.94,20,1.07,0V0Zm-4,.19-.17,0h-.14c-.56.06-1.12.13-1.67.21l2.84,19.79c.34,0,.69-.09,1-.12L37.69.19Zm-4,.57-.09,0h-.42c-.48.1-1,.2-1.44.32l4.73,19.43c.34-.08.68-.16,1-.22L33.73.76Zm-3.88,1-.8.24h0L29,2h0l-.05,0h0l-.05,0-.93.31,6.6,18.88c.32-.11.65-.22,1-.31L29.85,1.71ZM26.07,3c-.62.25-1.23.52-1.83.8L32.62,22c.31-.15.63-.29,1-.42L26.07,3ZM22.44,4.7c-.59.31-1.17.63-1.75,1L30.78,22.94c.3-.18.6-.35.91-.51L22.44,4.7ZM19,6.72c-.56.36-1.11.73-1.65,1.13L29,24.07c.29-.2.57-.4.87-.59L19,6.72ZM15.75,9.05c-.53.42-1,.85-1.54,1.29l13.19,15c.26-.23.53-.45.8-.67L15.75,9.05Zm-3,2.64c-.29.27-.56.55-.84.84h0l0,0h0v0h0v0h0l-.43.45L25.9,26.82c.23-.25.48-.5.73-.74L12.74,11.69ZM10,14.6h0v0h0v0H9.87v0h0c-.38.45-.75.9-1.1,1.36l0,0,15.8,12.26q.32-.4.66-.81L10,14.6ZM7.55,17.76,7.39,18h0v0h0c-.32.46-.62.92-.92,1.39l16.9,10.7c.18-.29.38-.59.58-.87L7.55,17.76ZM5.41,21.14,5,22H5l-.49.93,17.85,9c.16-.31.32-.62.5-.92L5.41,21.14Zm-1.8,3.57c-.07.15-.14.3-.2.45h0l0,.06h0a.14.14,0,0,0,0,.06h0c-.18.42-.36.84-.52,1.27l18.63,7.26c.13-.32.26-.64.4-1L3.61,24.71ZM2.15,28.43c-.09.27-.17.54-.26.81h0v0h0v0h0v0h0v0h0v0h0v0h0v0h0v0h0v0h0v0h0v0h0v0h0v0h0v0h0v0h0s0,0,0,0h0v0h0v0h0c-.06.18-.11.36-.16.55l19.25,5.43q.13-.5.3-1l-19-6.35ZM1.07,32.28C1,32.81.83,33.34.73,33.87c0,.13,0,.25-.07.37l19.69,3.55c.06-.34.13-.68.2-1L1.07,32.28ZM.36,36.22c-.06.42-.11.85-.15,1.28h0v0h0v0h0v0h0c0,.2,0,.39-.05.59l19.93,1.66c0-.35.07-.7.11-1L.36,36.22ZM0,40.2l0,1H0v0H0v.06H0v.24H0v0H0v0H0v0H0v0H0v0H0v0H0c0,.13,0,.27,0,.4L20,42V41.7c0-.26,0-.53,0-.79L0,40.2ZM20,43,.07,44.2c0,.57.08,1.14.14,1.7h0v0h0v0h0v0h0a1.1,1.1,0,0,0,0,.18l19.88-2.13c0-.34-.06-.69-.08-1Zm.22,2.08L.5,48.17v0h0v0h0v0h0c.08.53.17,1.05.28,1.57h0v0h0v0h0v0h0l0,.16,19.59-4c-.06-.34-.13-.68-.18-1Zm.42,2-19.37,5c.16.65.34,1.29.54,1.93L21,48.12c-.1-.33-.2-.67-.28-1Zm.61,2L2.48,55.91c.23.63.47,1.25.73,1.87l18.45-7.72c-.13-.32-.26-.64-.37-1Zm.79,1.9L4,59.6l.1.22h0v0h0c.18.37.36.73.55,1.1h0l0,0h0v0h0v0h0c0,.11.11.22.17.33l17.62-9.46c-.16-.31-.32-.62-.47-.93Zm1,1.83L5.92,63.12l.29.48h0v0h0v0h0c.24.38.49.77.74,1.14l16.63-11.1c-.19-.29-.38-.58-.55-.88Zm1.15,1.73L8.14,66.45l.22.3h0l0,0h0l0,0h0l0,0h0l0,0h0v0h0v0h0v0h0v0h0v0h0l0,0h0l0,0h0l0,0h0l0,0h0c.23.3.46.6.7.89l15.5-12.64c-.22-.27-.43-.55-.64-.83Zm1.32,1.62L10.67,69.55c.44.49.9,1,1.37,1.45L26.26,56.94c-.24-.24-.49-.5-.72-.76ZM27,57.67,13.48,72.39c.25.23.5.46.76.68h.06l0,0h0l.66.57L27.8,58.36c-.27-.22-.53-.46-.79-.69ZM28.62,59,16.55,75c.3.23.61.46.93.68l.69.48,11.29-16.5c-.28-.2-.57-.4-.84-.61Zm1.72,1.18-10.49,17,.1.07h0l0,0h0c.5.3,1,.6,1.52.88h0l9.67-17.51c-.31-.17-.61-.34-.9-.52Zm1.82,1-8.81,18,.33.17h.16l0,0h0q.63.3,1.26.57L33.1,61.62c-.32-.13-.64-.28-.94-.43Zm1.9.82L27,80.73c.62.24,1.25.45,1.89.66l6.12-19-1-.34Zm2,.63L30.82,82l.24.06h.21q.74.2,1.5.36L37,62.88c-.34-.07-.68-.15-1-.24Zm2,.44L34.73,82.81c.5.08,1,.16,1.51.22l.47.06,2.36-19.86c-.34,0-.69-.09-1-.15Zm2.07.25-1.41,20,.41,0h.09l1,0h.54l.46-20c-.35,0-.7,0-1,0Zm3.16,0-1.05.05.48,20,.56,0h.13l1.18-.06h.13l-1.43-20Zm2.08-.25c-.34.06-.69.11-1,.15l2.37,19.86c.61-.08,1.22-.16,1.83-.26h.15L45.35,63.08Zm2-.44c-.33.09-.67.17-1,.24l4.27,19.54.22,0h.21l.76-.18h.36l.39-.1-5.2-19.32Zm2-.63-1,.34,6.13,19,.92-.31h.19l.78-.29L49.33,62Zm1.91-.83-1,.44L58.23,80c.35-.15.7-.3,1.05-.47h.15l.62-.29-8.81-18Zm1.81-1c-.29.18-.59.36-.89.52l9.66,17.51.18-.1h0l0,0h.1l0,0h0l1.37-.8-10.5-17ZM54.77,59c-.27.21-.56.42-.84.61l11.3,16.5.75-.53h0l0,0h0l0,0h0l0,0h.14l0,0h0l.6-.45L54.77,59Zm1.61-1.34c-.26.24-.52.47-.79.69L68.41,73.7h.34l0,0h0l0,0h0l1-.86h0l0,0h0l0,0h0L56.38,57.66Zm1.47-1.49c-.23.26-.48.52-.72.77L71.36,71h0l0,0h0l.93-1h0l0,0h0v0h0l0,0h0c.1-.12.21-.24.32-.35L57.85,56.17Zm1.32-1.61c-.21.27-.42.55-.64.82L74,68h0l0,0h0v0h0l0,0h0l0,0h0l0,0h0c.21-.26.42-.52.62-.79h0l0,0h0v0h0v0h0a0,0,0,0,0,0,0h0c.11-.16.23-.31.35-.47L59.17,54.56Zm1.15-1.74c-.17.3-.36.59-.55.88L76.4,64.8l.14-.21,0,0h0c.31-.47.61-.95.9-1.43h0v0h0L60.32,52.82Zm1-1.83c-.14.32-.3.63-.46.93l17.62,9.45.27-.51.42-.83h0v0h0v0h0v0h0c.06-.11.11-.22.16-.33L61.3,51Zm.8-1.9c-.12.32-.24.64-.37,1l18.45,7.71c.1-.23.19-.46.28-.69h0v0h0v0h0v0h0c.13-.36.27-.71.4-1.06L62.1,49.09Zm.61-2c-.09.33-.18.67-.28,1L81.54,54c0-.14.08-.27.13-.41h0v0h0v0h0v0h0v0h0v0h0v0h0v0h0v0h0v0h0a0,0,0,0,0,0,0h0c.12-.4.23-.81.33-1.21l-19.37-5Zm.41-2q-.07.51-.18,1l19.59,4c.12-.57.22-1.15.32-1.72a1.87,1.87,0,0,1,0-.25L63.12,45.09ZM63.35,43c0,.35-.05.7-.09,1l19.89,2.13c0-.24,0-.47.07-.71h0v0h0v0h0v0c0-.38.06-.76.09-1.14v-.06L63.35,43Zm20-2.82-20,.71c0,.27,0,.53,0,.8V42l20,.23V41.8h0v0h0v0h0v0h0v-.09h0v0h0v-.17h0v0h0V41.2h0v0h0c0-.15,0-.29,0-.44h0v-.09h0v-.15h0a2.44,2.44,0,0,1,0-.27Zm-.33-4L63.2,38.81c0,.34.08.69.11,1l19.93-1.66c0-.16,0-.31,0-.47h0v0h0v0h0v0h0v0h0c0-.46-.1-.92-.15-1.37Zm-.72-3.93-19.48,4.5.21,1,19.68-3.56c-.06-.31-.12-.63-.19-.95h0v0h0v0h0v0h0v0h0v0h0v0h0v0h0v0h0v0h0v0h0v0h0l-.07-.32h0v-.06h0v0h0l-.06-.24Zm-1.08-3.85-19,6.36q.16.49.3,1l19.25-5.44h0v0h0v0h0v0h0c-.14-.49-.29-1-.45-1.46h0v0h0c0-.1-.07-.19-.1-.29Zm-1.46-3.73L61.51,32.85c.14.32.28.64.4,1l18.63-7.27c-.24-.62-.5-1.24-.77-1.85ZM78,21.12,60.58,31c.17.3.33.61.49.92l17.84-9c-.26-.52-.54-1-.82-1.55h0l0,0h0v0h0l0,0h0v0h0v0h0v0h0v0h0Zm-2.14-3.37L59.46,29.25c.2.28.4.57.58.86l16.9-10.7-.13-.2h0l0,0h0c-.21-.33-.43-.66-.65-1h0v0h0l-.26-.38Zm-2.45-3.16-15.2,13q.34.39.66.81l15.8-12.27L74.52,16h0l0,0h0v0h0v0h0v0h0v0h0l0,0h0l0,0h0l0,0h0l0,0h0l0,0h0l0,0h0l0,0h0l0,0h0l0,0h0l0,0h0l0,0h0v0h0v0h0v0h0v0h0v0h0v0h0v0h0l0,0h0l0,0h0l0,0h0l0,0h0l0,0h0l0,0h0l0,0h0l0,0h0l0,0h0l0,0h0l0,0h0v0h0v0h0v0h0v0h0v0h0l-.12-.15Zm-2.75-2.91L56.75,26.08c.25.24.5.49.73.74L72,13.1h0c-.46-.49-.93-1-1.41-1.42ZM67.62,9,55.17,24.7c.28.21.55.44.81.67l13.18-15-.23-.21h0l0,0h0c-.41-.35-.83-.7-1.26-1ZM64.38,6.71,53.48,23.48c.29.19.58.38.86.59L66,7.84l-.46-.33h0L65,7.12h0l0,0h0l0,0h0l-.55-.36Zm-3.45-2L51.69,22.43l.91.5L62.68,5.66l-.44-.25h0l-.05,0h0l0,0h0c-.4-.23-.81-.44-1.21-.66ZM57.29,3,49.81,21.56l.95.41L59.13,3.81h-.31c-.5-.23-1-.44-1.53-.65ZM53.52,1.7,47.86,20.88l1,.32L55.42,2.31l-1.33-.44h-.15l-.42-.13ZM49.63.76,45.85,20.39l1,.22L51.59,1.18h-.23L50.54.94H50.3L49.63.76Zm-4-.57L43.79,20.1c.34,0,.69.07,1,.12L47.66.42l-.5-.06H47l-.9-.1H46l-.27,0Zm-4-.19V20l1.05,0,.94-20c-.4,0-.81,0-1.21,0h-.78Z"
         id="path81" /></g><path
       class="cls-9"
       d="M41.69,2A39.69,39.69,0,1,1,2,41.7,39.75,39.75,0,0,1,41.69,2m0-2a41.69,41.69,0,1,0,41.7,41.7A41.69,41.69,0,0,0,41.69,0Z"
       id="path85" /><g
       class="cls-4"
       id="g89"><path
         d="M77.71,41.7a36,36,0,1,1-36-36A36,36,0,0,1,77.71,41.7Z"
         id="path87" /></g><g
       id="g95"><path
         class="cls-10"
         d="M41.69,69.83A28.13,28.13,0,1,1,69.81,41.7,28.16,28.16,0,0,1,41.69,69.83Z"
         id="path91" /><path
         class="cls-7"
         d="M41.69,16.58A25.13,25.13,0,1,1,16.56,41.7,25.15,25.15,0,0,1,41.69,16.58m0-6A31.13,31.13,0,1,0,72.81,41.7,31.12,31.12,0,0,0,41.69,10.58Z"
         id="path93" /></g></g><path
     style="fill:#888c8d;fill-opacity:1;stroke-width:0.185258"
     d="m 123.75232,66.567994 c -1.26116,-0.157385 -3.43136,-0.694792 -4.90934,-1.215702 -8.50214,-2.996562 -14.84105,-10.464385 -16.40307,-19.324343 -0.42326,-2.400801 -0.42811,-6.25427 -0.0108,-8.60584 1.33419,-7.518814 6.0856,-14.11624 12.80137,-17.774971 7.52605,-4.100164 16.87356,-3.964369 24.42249,0.354796 6.01331,3.440553 10.27834,9.231418 11.94325,16.215998 0.42926,1.800818 0.48629,2.425686 0.49039,5.372481 0.004,2.519519 -0.0769,3.719563 -0.32897,4.909336 -2.20099,10.389296 -10.1577,18.16016 -20.38767,19.911459 -1.50559,0.257746 -6.05781,0.35144 -7.61762,0.156786 z"
     id="path1039" /><path
     style="fill:#6a6b6d;fill-opacity:1;stroke-width:0.185258"
     d="m 108.9262,13.529227 c -0.65928,-1.015951 -1.19869,-1.915003 -1.19869,-1.997894 0,-0.163242 1.10183,-0.863963 1.19206,-0.758107 0.0302,0.0354 0.56483,0.939709 1.18812,2.009573 l 1.13326,1.945209 -0.4136,0.320082 c -0.22748,0.176045 -0.4786,0.321936 -0.55803,0.324202 -0.0794,0.0023 -0.68384,-0.827114 -1.34312,-1.843065 z"
     id="path6110" /><path
     style="fill:#6a6b6d;fill-opacity:1;stroke-width:0.185258"
     d="m 111.72063,11.975977 c -0.56595,-1.055104 -1.029,-1.9983737 -1.029,-2.0961549 0,-0.097781 0.28214,-0.3123271 0.62698,-0.4767688 l 0.62698,-0.2989848 0.94771,2.0360785 c 0.52125,1.119843 0.94772,2.100908 0.94772,2.180145 0,0.123069 -0.79941,0.574055 -1.01755,0.574055 -0.0406,0 -0.53688,-0.863266 -1.10284,-1.91837 z"
     id="path6112" /><path
     style="fill:#6a6b6d;fill-opacity:1;stroke-width:0.185258"
     d="m 114.61384,10.56434 c -0.44103,-1.1169672 -0.75381,-2.1086222 -0.69506,-2.2036779 0.16355,-0.2646306 1.19787,-0.5786992 1.30974,-0.3976977 0.0544,0.088001 0.41527,1.0773727 0.80196,2.1986056 l 0.70307,2.038604 -0.43606,0.198684 c -0.23984,0.109276 -0.53635,0.198154 -0.65892,0.197507 -0.12257,-6.48e-4 -0.5837,-0.915058 -1.02473,-2.032025 z"
     id="path6114" /><path
     style="fill:#6a6b6d;fill-opacity:1;stroke-width:0.0654986"
     d="m 117.60474,9.5273748 c -0.40424,-1.3491064 -0.65384,-2.2858203 -0.61833,-2.3204623 0.0327,-0.031951 0.38918,-0.1460558 0.79206,-0.2535664 l 0.73251,-0.1954739 0.56823,2.3232162 c 0.31253,1.2777686 0.55765,2.3333886 0.54471,2.3458216 -0.0251,0.02409 -1.24278,0.362709 -1.30464,0.362788 -0.0202,2.6e-5 -0.3417,-1.01802 -0.71454,-2.2623232 z"
     id="path6116" /><path
     style="fill:#6a6b6d;fill-opacity:1;stroke-width:0.0654986"
     d="m 120.84645,9.5151199 c -0.17152,-0.8923975 -0.37959,-1.9614844 -0.46239,-2.3757486 -0.0828,-0.4142643 -0.14563,-0.7577938 -0.13961,-0.763399 0.0329,-0.030664 1.58737,-0.2673021 1.6104,-0.245155 0.03,0.028867 0.71341,4.6978477 0.69193,4.7272417 -0.007,0.0099 -0.27525,0.06285 -0.59555,0.11762 -0.3203,0.05477 -0.62974,0.113617 -0.68765,0.130779 -0.0892,0.02645 -0.1528,-0.216031 -0.41713,-1.5913381 z"
     id="path6118" /><path
     style="fill:#6a6b6d;fill-opacity:1;stroke-width:0.0654986"
     d="m 124.08493,10.664275 c -0.12124,-1.1828518 -0.44102,-4.741075 -0.42731,-4.7547826 0.0295,-0.029498 1.61654,-0.1593279 1.64158,-0.1342909 0.0349,0.034911 0.25692,4.7641285 0.22499,4.7926945 -0.0354,0.03166 -1.43627,0.125468 -1.43926,0.09638 z"
     id="path6120" /><path
     style="fill:#6a6b6d;fill-opacity:1;stroke-width:0.0654986"
     d="m 129.03914,10.628876 -0.51705,-0.02396 0.0409,-0.733934 c 0.0225,-0.4036636 0.075,-1.4855302 0.1167,-2.4041478 0.0417,-0.9186176 0.0849,-1.6809146 0.0961,-1.6939933 0.0289,-0.033942 1.59194,0.092931 1.63143,0.132421 0.018,0.018037 -0.0631,1.091523 -0.18028,2.3855241 l -0.21307,2.352729 -0.2288,0.0047 c -0.12585,0.0026 -0.46148,-0.0061 -0.74586,-0.0193 z"
     id="path6122" /><path
     style="fill:#6a6b6d;fill-opacity:1;stroke-width:0.0654986"
     d="m 135.12357,11.613917 c -0.32422,-0.09106 -0.5957,-0.171115 -0.60331,-0.177897 -0.0141,-0.01262 1.0727,-4.4625388 1.12451,-4.604127 0.0207,-0.056544 0.23369,-0.023481 0.76894,0.1193598 0.40717,0.108662 0.75914,0.2175412 0.78214,0.2419538 0.0748,0.079439 -1.28679,4.5626474 -1.38952,4.5750324 -0.0513,0.0062 -0.35854,-0.06326 -0.68276,-0.154322 z"
     id="path6124" /><path
     style="fill:#6a6b6d;fill-opacity:1;stroke-width:0.0654986"
     d="m 132.28065,10.990457 c -0.37481,-0.06385 -0.68931,-0.123915 -0.69888,-0.133486 -0.029,-0.029 0.65787,-4.6871949 0.6969,-4.7262215 0.0199,-0.019953 0.37347,0.021777 0.7856,0.092733 0.41213,0.070956 0.7662,0.1292065 0.78682,0.1294454 0.0285,3.297e-4 -0.73748,4.1210211 -0.8649,4.6530991 -0.0215,0.08962 -0.0979,0.08794 -0.70554,-0.01557 z"
     id="path6126" /><path
     style="fill:#6a6b6d;fill-opacity:1;stroke-width:0.0654986"
     d="m 139.72485,7.9753682 c -0.38726,-0.1467915 -0.70411,-0.2928887 -0.70411,-0.3246606 0,-0.08989 1.11962,-3.2895095 1.1684,-3.3390304 0.06,-0.060874 1.64807,0.5474502 1.6479,0.6312315 -2.4e-4,0.1221336 -1.29854,3.2735311 -1.354,3.286604 -0.0297,0.00701 -0.37093,-0.107353 -0.75819,-0.2541445 z"
     id="path6128" /><path
     style="fill:#6a6b6d;fill-opacity:1;stroke-width:0.0654986"
     d="m 136.43354,6.9220224 c -0.39626,-0.11019 -0.7291,-0.2058651 -0.73963,-0.2126114 -0.0311,-0.019914 0.81347,-3.431907 0.86133,-3.4797671 0.0444,-0.044439 1.61301,0.3555501 1.68729,0.4302637 0.0552,0.055466 -0.95198,3.4361141 -1.02802,3.4507889 -0.0333,0.00642 -0.3847,-0.078484 -0.78097,-0.1886741 z"
     id="path6130" /><path
     style="fill:#6a6b6d;fill-opacity:1;stroke-width:0.0654986"
     d="m 133.64985,6.2800314 c -0.12608,-0.028375 -0.46504,-0.085888 -0.75323,-0.1278067 -0.28819,-0.041919 -0.54618,-0.096422 -0.57329,-0.1211184 -0.0503,-0.045832 0.38069,-3.2917917 0.46268,-3.4844019 0.0411,-0.096614 0.11886,-0.093341 0.87903,0.037013 0.45865,0.078651 0.85104,0.1601319 0.87198,0.1810689 0.0293,0.029343 -0.60989,3.5373546 -0.64895,3.5613307 -0.005,0.00303 -0.11213,-0.017711 -0.23822,-0.046086 z"
     id="path6132" /><path
     style="fill:#6a6b6d;fill-opacity:1;stroke-width:0.0654986"
     d="m 129.43788,5.7615764 c -0.35326,-0.026809 -0.65074,-0.059365 -0.66105,-0.072346 -0.0298,-0.037553 0.15309,-3.5455699 0.18664,-3.57912 0.0476,-0.04763 1.64286,0.057458 1.73481,0.1142819 0.0657,0.040613 0.0544,0.3620471 -0.0557,1.5823541 -0.076,0.8422634 -0.15513,1.6419169 -0.17592,1.7770077 -0.0427,0.2776479 0.0577,0.2602809 -1.02883,0.1778224 z"
     id="path6134" /><path
     style="fill:#6a6b6d;fill-opacity:1;stroke-width:0.0654986"
     d="m 137.98591,12.528454 c -0.34177,-0.131542 -0.59717,-0.266036 -0.58193,-0.306447 0.0149,-0.03961 0.37318,-1.064168 0.79609,-2.276793 l 0.76892,-2.2047727 0.206,0.065094 c 0.11329,0.035801 0.26494,0.08956 0.33699,0.1194625 0.0721,0.029903 0.30405,0.1228017 0.51556,0.2064418 0.2115,0.08364 0.39541,0.1820103 0.40867,0.2186007 0.0324,0.089365 -1.70456,4.3779047 -1.78107,4.3974667 -0.0331,0.0085 -0.33423,-0.09012 -0.66923,-0.219053 z"
     id="path6136" /><path
     style="fill:#6a6b6d;fill-opacity:1;stroke-width:0.0654986"
     d="m 140.75645,13.711042 c -0.32422,-0.164464 -0.59752,-0.306094 -0.60733,-0.314735 -0.0163,-0.0143 1.93939,-4.2944909 1.98645,-4.3476197 0.0247,-0.027894 1.47007,0.6541345 1.47007,0.6936869 0,0.060244 -2.19614,4.2701088 -2.22695,4.2689368 -0.018,-6.85e-4 -0.29802,-0.135806 -0.62224,-0.300269 z"
     id="path6138" /><path
     style="fill:#6a6b6d;fill-opacity:1;stroke-width:0.0654986"
     d="m 142.87034,9.3303762 -0.70255,-0.3566652 0.21742,-0.4750674 c 1.00497,-2.1959369 1.24427,-2.7088335 1.28525,-2.7546874 0.0764,-0.085447 1.60897,0.696732 1.58423,0.8085233 -0.032,0.1444697 -1.60376,3.141819 -1.64551,3.1379362 -0.02,-0.00186 -0.35244,-0.1638736 -0.73884,-0.3600395 z"
     id="path6140" /><path
     style="fill:#6a6b6d;fill-opacity:1;stroke-width:0.0654986"
     d="m 145.93084,10.995701 c -0.36024,-0.220483 -0.66452,-0.409279 -0.67617,-0.419546 -0.0188,-0.01652 1.72619,-3.0349495 1.79326,-3.1020202 0.0294,-0.029444 1.21361,0.6747067 1.41125,0.8391793 0.11907,0.099094 0.0851,0.1632714 -0.8419,1.5931911 -0.53127,0.8194658 -0.98069,1.4899678 -0.99871,1.4900058 -0.018,3.7e-5 -0.32749,-0.180327 -0.68773,-0.40081 z"
     id="path6142" /><path
     style="fill:#6a6b6d;fill-opacity:1;stroke-width:0.0654986"
     d="m 143.36317,15.141168 c -0.55972,-0.344638 -0.59672,-0.380456 -0.51872,-0.50217 0.0462,-0.07208 0.59437,-1.005954 1.21815,-2.075266 l 1.13416,-1.944204 0.30154,0.162882 c 0.39853,0.215271 0.53972,0.30284 0.64732,0.401473 0.0491,0.04503 0.11635,0.08187 0.14939,0.08187 0.033,0 0.11556,0.04751 0.18337,0.105573 0.11838,0.101357 0.0723,0.184428 -1.15277,2.07958 -0.70184,1.085704 -1.29489,1.993663 -1.3179,2.017687 -0.023,0.02402 -0.31305,-0.123319 -0.64454,-0.327428 z"
     id="path6144" /><path
     style="fill:#6a6b6d;fill-opacity:1;stroke-width:0.0654986"
     d="m 145.85363,16.844153 c -0.25861,-0.204193 -0.48858,-0.389989 -0.51103,-0.412881 -0.0294,-0.02995 2.57089,-3.726238 2.75174,-3.911607 0.0456,-0.04672 1.27934,0.927798 1.25751,0.993283 -0.0464,0.139094 -2.89977,3.707832 -2.96252,3.705206 -0.036,-0.0015 -0.27709,-0.169808 -0.5357,-0.374001 z"
     id="path6146" /><path
     style="fill:#6a6b6d;fill-opacity:1;stroke-width:0.0654986"
     d="m 148.81421,12.968977 c -0.32343,-0.247572 -0.59767,-0.479004 -0.60944,-0.514294 -0.0118,-0.03529 0.44122,-0.70777 1.00663,-1.494401 0.56541,-0.786631 1.03212,-1.4360299 1.03713,-1.4431082 0.0251,-0.035445 1.38069,1.0394222 1.38069,1.0947782 0,0.07038 -2.14085,2.810519 -2.19421,2.808435 -0.018,-7.03e-4 -0.29737,-0.203838 -0.6208,-0.45141 z"
     id="path6148" /><path
     style="fill:#6a6b6d;fill-opacity:1;stroke-width:0.0654986"
     d="m 123.60322,5.5217212 c -0.10544,-0.8595088 -0.30673,-3.2465116 -0.27633,-3.2769133 0.0456,-0.045647 1.7338,-0.1795362 1.77274,-0.1405981 0.0165,0.01651 0.0603,0.6329994 0.0973,1.3699769 0.037,0.7369774 0.0825,1.5375603 0.10112,1.779073 l 0.0338,0.439114 -0.21305,0.032666 c -0.11717,0.017966 -0.49744,0.050351 -0.84503,0.071966 l -0.63199,0.039299 z"
     id="path6150" /><path
     style="fill:#6a6b6d;fill-opacity:1;stroke-width:0.0654986"
     d="m 120.20054,6.1938258 c -0.14949,-0.6692021 -0.64489,-3.3872101 -0.62162,-3.4104787 0.0747,-0.074681 1.69807,-0.3136871 1.74815,-0.257374 0.0525,0.059083 0.56048,3.5026574 0.52016,3.5264695 -0.0109,0.00646 -0.37911,0.07133 -0.81818,0.144164 l -0.79831,0.1324263 z"
     id="path6152" /><path
     style="fill:#6a6b6d;fill-opacity:1;stroke-width:0.0654986"
     d="m 116.75575,6.6972299 c -0.0726,-0.2431635 -0.30495,-1.0168655 -0.51632,-1.7193377 -0.25578,-0.8500261 -0.36043,-1.2905714 -0.31288,-1.3171329 0.12011,-0.067103 1.67562,-0.4737571 1.70319,-0.4452639 0.0142,0.014676 0.2166,0.8076285 0.44977,1.7621158 l 0.42394,1.7354315 -0.79424,0.210981 c -0.43683,0.1160396 -0.80036,0.2119577 -0.80784,0.2131513 -0.007,0.00119 -0.073,-0.1967816 -0.14562,-0.4399451 z"
     id="path6154" /><path
     style="fill:#6a6b6d;fill-opacity:1;stroke-width:0.0654986"
     d="m 112.95754,6.6058751 c -0.3671,-0.9058203 -0.64373,-1.6683484 -0.61472,-1.6945068 0.0618,-0.055746 1.67154,-0.6642312 1.68937,-0.6385934 0.0378,0.054345 1.14792,3.3036842 1.14753,3.3588374 -3.7e-4,0.053261 -1.38992,0.6212089 -1.51986,0.6212089 -0.0192,0 -0.33523,-0.7411257 -0.70232,-1.6469461 z"
     id="path6156" /><path
     style="fill:#6a6b6d;fill-opacity:1;stroke-width:0.0654986"
     d="m 109.65048,8.1308458 c -0.45744,-0.8776314 -0.82274,-1.6037646 -0.81178,-1.6136293 0.011,-0.00986 0.38122,-0.1984778 0.82279,-0.4191401 l 0.80285,-0.4012042 0.1549,0.3446197 c 0.0852,0.1895409 0.42556,0.9335611 0.75638,1.6533784 0.33081,0.7198172 0.57285,1.3183013 0.53786,1.3299646 -0.035,0.011663 -0.37134,0.1743181 -0.74745,0.3614552 l -0.68384,0.3402492 z"
     id="path6158" /><path
     style="fill:#6a6b6d;fill-opacity:1;stroke-width:0.0654986"
     d="m 107.26468,11.082835 c -0.5903,-0.874563 -1.72193,-2.6471158 -1.7023,-2.6664463 0.0117,-0.011554 0.35724,-0.22945 0.7678,-0.4842128 l 0.74646,-0.4632049 0.9048,1.5538313 c 0.49763,0.8546073 0.88384,1.5735877 0.85825,1.5977337 -0.0256,0.02415 -0.33368,0.222151 -0.68462,0.440009 l -0.63807,0.396106 z"
     id="path6160" /><path
     style="fill:#6a6b6d;fill-opacity:1;stroke-width:0.0654986"
     d="m 103.58601,12.073176 c -0.5944,-0.743894 -1.08989,-1.375263 -1.10109,-1.403041 -0.02,-0.04954 1.34584,-1.1101035 1.42234,-1.1044731 0.0486,0.00358 2.06944,2.8200861 2.06944,2.8842161 0,0.05432 -1.19484,0.977697 -1.26369,0.976582 -0.0254,-4.12e-4 -0.5326,-0.609389 -1.127,-1.353284 z"
     id="path6162" /><path
     style="fill:#6a6b6d;fill-opacity:1;stroke-width:0.0654986"
     d="m 100.8575,14.413299 -1.254784,-1.28224 0.530074,-0.490536 c 0.29154,-0.269795 0.59607,-0.542502 0.67672,-0.606016 0.14643,-0.115311 0.14838,-0.113513 1.33501,1.230156 l 1.18836,1.345636 -0.50554,0.472807 c -0.27804,0.260044 -0.55267,0.504223 -0.61029,0.54262 -0.0867,0.05776 -0.32148,-0.151643 -1.35955,-1.212427 z"
     id="path6164" /><path
     style="fill:#6a6b6d;fill-opacity:1;stroke-width:0.0654986"
     d="m 103.8261,17.433476 -1.69117,-1.692109 0.60636,-0.537575 c 0.58458,-0.518258 0.61062,-0.533325 0.72462,-0.419324 0.065,0.06504 0.78138,0.869443 1.59188,1.787568 l 1.47364,1.669319 -0.46933,0.442115 c -0.25813,0.243164 -0.48632,0.442116 -0.50708,0.442116 -0.0208,0 -0.79878,-0.76145 -1.72892,-1.69211 z"
     id="path6166" /><path
     style="fill:#6a6b6d;fill-opacity:1;stroke-width:0.0654986"
     d="m 106.33151,15.509645 c -1.76368,-2.213083 -1.61863,-2.000862 -1.44883,-2.119792 0.0758,-0.05311 0.17694,-0.132746 0.22472,-0.176973 0.0478,-0.04423 0.18922,-0.15197 0.31433,-0.239426 0.12512,-0.08746 0.31976,-0.228277 0.43254,-0.312935 l 0.20506,-0.153924 0.55193,0.771425 c 0.30355,0.424284 0.9353,1.301964 1.40388,1.9504 l 0.85197,1.178975 -0.56641,0.43124 -0.5664,0.431241 z"
     id="path6168" /><path
     style="fill:#6a6b6d;fill-opacity:1;stroke-width:0.0654986"
     d="m 109.69616,14.589809 c -0.76993,-1.081029 -1.91824,-2.909142 -1.91824,-3.053841 0,-0.08581 0.44915,-0.42337 0.81077,-0.609319 0.21121,-0.108609 0.26804,-0.11588 0.33716,-0.04313 0.0714,0.07517 1.96853,3.292499 2.18477,3.705173 0.0707,0.134837 0.0453,0.169344 -0.32527,0.442116 -0.22105,0.162724 -0.43846,0.295863 -0.48314,0.295863 -0.0447,0 -0.3174,-0.331587 -0.60605,-0.736859 z"
     id="path6170" /><path
     style="fill:#6a6b6d;fill-opacity:1;stroke-width:0.0654986"
     d="m 112.29944,12.950122 c -0.28877,-0.512123 -0.76725,-1.408319 -1.06328,-1.991546 -0.52156,-1.0275528 -0.53463,-1.0644079 -0.42159,-1.18931 0.11278,-0.1246165 1.08007,-0.6311178 1.12293,-0.5879922 0.0391,0.039391 1.60891,3.4668112 1.73918,3.7973252 0.0709,0.179927 0.11227,0.354121 0.0919,0.387098 -0.0472,0.07638 -0.53178,0.360101 -0.76556,0.448243 -0.17744,0.0669 -0.18179,0.06156 -0.70357,-0.863818 z"
     id="path6172" /><path
     style="fill:#6a6b6d;fill-opacity:1;stroke-width:0.0654986"
     d="m 101.7406,19.67225 -1.812649,-1.555835 0.201279,-0.232274 c 0.11071,-0.12775 0.3544,-0.397851 0.54153,-0.600224 l 0.34025,-0.36795 1.59861,1.501837 c 0.87924,0.826011 1.66487,1.566935 1.74583,1.6465 l 0.14721,0.144662 -0.4747,0.50956 -0.4747,0.50956 z"
     id="path6174" /><path
     style="fill:#6a6b6d;fill-opacity:1;stroke-width:0.0654986"
     d="m 98.6062,16.991256 c -0.70142,-0.597383 -1.31673,-1.126139 -1.367357,-1.175013 -0.101209,-0.09771 -0.05567,-0.160526 0.725024,-1.000208 l 0.383417,-0.412385 1.304835,1.228696 c 0.780861,0.735296 1.286941,1.258722 1.260261,1.30347 -0.0245,0.04113 -0.26648,0.314807 -0.53772,0.608182 l -0.493152,0.533408 z"
     id="path6176" /><path
     style="fill:#6a6b6d;fill-opacity:1;stroke-width:0.0654986"
     d="m 96.170072,19.987604 c -0.746523,-0.528147 -1.3912,-0.994825 -1.432616,-1.037062 -0.05706,-0.05819 0.07087,-0.272414 0.528026,-0.884231 0.331831,-0.444089 0.610997,-0.807435 0.62037,-0.807435 0.0094,0 0.655943,0.496491 1.436824,1.103313 l 1.419784,1.103313 -0.233707,0.304906 c -0.128538,0.167699 -0.372455,0.502603 -0.542038,0.74423 -0.169582,0.241628 -0.337805,0.437953 -0.373829,0.436278 -0.03602,-0.0017 -0.676291,-0.435166 -1.422814,-0.963312 z"
     id="path6178" /><path
     style="fill:#6a6b6d;fill-opacity:1;stroke-width:0.0654986"
     d="m 94.186959,22.981403 c -0.828557,-0.471809 -1.51668,-0.86714 -1.529164,-0.878514 -0.01248,-0.01137 0.188098,-0.374441 0.445736,-0.806817 l 0.468432,-0.786139 1.093481,0.693133 c 0.601415,0.381224 1.289934,0.815675 1.530042,0.965448 l 0.436561,0.272314 -0.403812,0.697767 c -0.222096,0.383773 -0.433285,0.698415 -0.46931,0.699206 -0.03602,7.9e-4 -0.743408,-0.384588 -1.571966,-0.856398 z"
     id="path6180" /><path
     style="fill:#6a6b6d;fill-opacity:1;stroke-width:0.0654986"
     d="m 92.582244,26.258482 c -0.882593,-0.39183 -1.624851,-0.72015 -1.649462,-0.729601 -0.02461,-0.0095 0.133874,-0.391222 0.35219,-0.848379 l 0.396937,-0.831195 1.629478,0.815241 1.629479,0.815241 -0.368067,0.736438 c -0.202437,0.405042 -0.372066,0.740541 -0.376954,0.745555 -0.0049,0.005 -0.731007,-0.311471 -1.613601,-0.7033 z"
     id="path6182" /><path
     style="fill:#6a6b6d;fill-opacity:1;stroke-width:0.0654986"
     d="m 91.40327,29.081619 c -1.357547,-0.467537 -1.666406,-0.595865 -1.64987,-0.685507 0.06065,-0.328781 0.393801,-1.048638 0.47717,-1.03104 0.15509,0.03274 3.167065,1.20545 3.220734,1.253993 0.05074,0.0459 -0.28312,1.057818 -0.344704,1.044782 -0.01821,-0.0039 -0.784713,-0.265858 -1.70333,-0.582228 z"
     id="path6184" /><path
     style="fill:#6a6b6d;fill-opacity:1;stroke-width:0.0654986"
     d="m 90.191546,33.128972 c -0.93663,-0.217823 -1.709583,-0.401437 -1.717674,-0.40803 -0.0081,-0.0066 0.106017,-0.467134 0.253572,-1.023423 0.147555,-0.556289 0.283168,-1.079274 0.301362,-1.162191 0.04019,-0.183173 -0.09821,-0.209664 1.948723,0.37299 1.114967,0.317372 1.569283,0.473881 1.562737,0.538352 -0.008,0.07903 -0.277545,1.105271 -0.484022,1.842984 -0.03781,0.135091 -0.08967,0.243311 -0.11524,0.24049 -0.02557,-0.0028 -0.812828,-0.183349 -1.749458,-0.401172 z"
     id="path6186" /><path
     style="fill:#6a6b6d;fill-opacity:1;stroke-width:0.0654986"
     d="m 94.416205,34.09701 c -1.242836,-0.290943 -2.295941,-0.552459 -2.340233,-0.581148 -0.05479,-0.03549 -0.0608,-0.08783 -0.01879,-0.163746 0.03396,-0.06137 0.138796,-0.421067 0.232973,-0.799321 0.260955,-1.048109 0.310018,-1.181641 0.422475,-1.149841 0.05437,0.01537 1.071513,0.299596 2.260312,0.631602 1.1888,0.332006 2.182805,0.621992 2.2089,0.644414 0.0261,0.02242 -0.05469,0.408477 -0.179526,0.857901 -0.124836,0.449424 -0.227241,0.866975 -0.227568,0.927892 -3.27e-4,0.06092 -0.0227,0.122114 -0.04972,0.135996 -0.02702,0.01388 -1.065989,-0.212806 -2.308823,-0.503749 z"
     id="path6188" /><path
     style="fill:#6a6b6d;fill-opacity:1;stroke-width:0.0654986"
     d="M 95.56243,30.484331 C 94.445679,30.108309 93.452501,29.76853 93.355367,29.729266 l -0.176607,-0.07139 0.132981,-0.337377 c 0.07314,-0.185557 0.134497,-0.352114 0.136348,-0.370126 0.0019,-0.01801 0.03143,-0.09434 0.06573,-0.169614 0.06024,-0.132226 0.135991,-0.108167 2.234461,0.709705 1.194656,0.465614 2.195113,0.868538 2.223238,0.895386 0.06886,0.06574 -0.213725,0.792713 -0.305846,0.786815 -0.04003,-0.0026 -0.986489,-0.312313 -2.103239,-0.688334 z"
     id="path6190" /><path
     style="fill:#6a6b6d;fill-opacity:1;stroke-width:0.0654986"
     d="M 96.463976,27.979533 C 95.266762,27.45078 94.28677,26.997881 94.286215,26.973091 94.285661,26.9483 94.436188,26.603648 94.62072,26.207198 l 0.335513,-0.720819 1.351076,0.679318 c 0.743091,0.373625 1.706822,0.865649 2.141623,1.093386 l 0.790547,0.414067 -0.299375,0.633876 -0.299375,0.633875 z"
     id="path6192" /><path
     style="fill:#6a6b6d;fill-opacity:1;stroke-width:0.0654986"
     d="m 97.906038,25.09878 c -1.124638,-0.637477 -2.045712,-1.189285 -2.04683,-1.226241 -0.0011,-0.03696 0.1306,-0.280323 0.292709,-0.540815 0.162109,-0.260492 0.294744,-0.490876 0.294744,-0.511964 0,-0.02109 0.05345,-0.106292 0.118777,-0.189343 l 0.118778,-0.151001 1.960802,1.24122 c 1.078441,0.682671 1.985302,1.265644 2.015252,1.295496 0.0496,0.04942 -0.60044,1.242381 -0.676686,1.241903 -0.01801,-1.13e-4 -0.952908,-0.521778 -2.077546,-1.159255 z"
     id="path6194" /><path
     style="fill:#6a6b6d;fill-opacity:1;stroke-width:0.0654986"
     d="m 99.719368,22.458796 c -2.288734,-1.598062 -2.139419,-1.476101 -1.980733,-1.617868 0.06811,-0.06085 0.268985,-0.316948 0.446395,-0.569117 0.17741,-0.25217 0.386784,-0.529062 0.465276,-0.615317 l 0.142713,-0.156828 1.872501,1.455376 c 1.02988,0.800456 1.87175,1.475253 1.87082,1.499548 -9.2e-4,0.02429 -0.21561,0.328094 -0.47708,0.67511 l -0.4754,0.630937 z"
     id="path6196" /><path
     style="fill:#6a6b6d;fill-opacity:1;stroke-width:0.0654986"
     d="m 93.666679,37.162212 c -1.186759,-0.159506 -2.172134,-0.3044 -2.18972,-0.321986 -0.04406,-0.04406 0.193971,-1.536243 0.245265,-1.537512 0.152466,-0.0038 4.572005,0.81491 4.616768,0.855216 0.04773,0.04298 -0.01785,0.647801 -0.125765,1.159887 -0.03981,0.188897 0.06367,0.19522 -2.546548,-0.155605 z"
     id="path6198" /><path
     style="fill:#6a6b6d;fill-opacity:1;stroke-width:0.0654986"
     d="m 93.127661,40.450983 c -1.050929,-0.03955 -1.92974,-0.09088 -1.952914,-0.114051 -0.05029,-0.05029 0.03227,-1.588205 0.09009,-1.678395 0.02504,-0.03906 0.854625,0.0069 2.201636,0.122087 1.188799,0.101616 2.255392,0.186169 2.370206,0.187894 0.196891,0.003 0.20722,0.01523 0.181792,0.216008 -0.01483,0.117079 -0.0451,0.470771 -0.06726,0.785983 l -0.0403,0.573113 -0.436235,-0.01036 c -0.23993,-0.0057 -1.296087,-0.04272 -2.347016,-0.08228 z"
     id="path6200" /><path
     style="fill:#6a6b6d;fill-opacity:1;stroke-width:0.0654986"
     d="m 91.141275,42.836072 v -0.982479 h 2.385357 2.385356 l 0.02272,0.835107 c 0.0125,0.459309 0.01627,0.846021 0.0084,0.85936 -0.01747,0.02953 -3.8973,0.264501 -4.4252,0.267997 l -0.376617,0.0025 z"
     id="path6202" /><path
     style="fill:#6a6b6d;fill-opacity:1;stroke-width:0.0654986"
     d="m 91.477534,46.786259 c -0.04012,-0.281331 -0.0918,-0.678937 -0.114835,-0.883569 l -0.04189,-0.372058 0.221352,-0.03701 c 0.121744,-0.02036 1.076109,-0.126028 2.120812,-0.234828 1.044702,-0.1088 2.024725,-0.215441 2.177828,-0.23698 l 0.278369,-0.03916 0.0014,0.220308 c 7.79e-4,0.121169 0.03942,0.472964 0.08587,0.781767 l 0.08446,0.561461 -2.296451,0.349091 c -1.263048,0.192001 -2.329646,0.361107 -2.370219,0.375792 -0.04709,0.01704 -0.100145,-0.158266 -0.146711,-0.484811 z"
     id="path6204" /><path
     style="fill:#6a6b6d;fill-opacity:1;stroke-width:0.0654986"
     d="m 92.219384,50.54853 c -0.01719,-0.04503 -0.113995,-0.450303 -0.21512,-0.900606 -0.183649,-0.817773 -0.183706,-0.818785 -0.04856,-0.864466 0.342374,-0.115727 4.440789,-0.912128 4.525898,-0.879469 0.05283,0.02027 0.09611,0.08937 0.09618,0.153539 7.2e-5,0.06417 0.06951,0.403416 0.154305,0.753872 0.138359,0.571817 0.143386,0.640447 0.049,0.668894 -0.239451,0.07217 -4.442843,1.150109 -4.484801,1.150109 -0.0251,0 -0.05971,-0.03684 -0.0769,-0.08187 z"
     id="path6206" /><path
     style="fill:#6a6b6d;fill-opacity:1;stroke-width:0.0654986"
     d="M 93.021775,53.247869 C 92.888106,52.855363 92.77874,52.49637 92.77874,52.450107 c 0,-0.05345 0.81074,-0.332696 2.223727,-0.76593 1.223051,-0.374998 2.247285,-0.67656 2.276076,-0.670139 0.0535,0.01193 0.492974,1.260778 0.456509,1.297243 -0.01105,0.01105 -1.004243,0.376288 -2.207085,0.811629 -1.202842,0.435342 -2.204124,0.802122 -2.225071,0.815068 -0.02095,0.01295 -0.147451,-0.297603 -0.281121,-0.690109 z"
     id="path6208" /><path
     style="fill:#6a6b6d;fill-opacity:1;stroke-width:0.0654986"
     d="m 94.256059,56.41102 c -0.167577,-0.380449 -0.29186,-0.725149 -0.276184,-0.766001 0.02679,-0.06981 4.108845,-1.814013 4.283673,-1.830349 0.04465,-0.0042 0.208089,0.272821 0.363207,0.615539 l 0.282032,0.623125 -1.995809,0.948841 c -1.097695,0.521863 -2.076004,0.98298 -2.174021,1.024705 l -0.178211,0.07586 z"
     id="path6210" /><path
     style="fill:#6a6b6d;fill-opacity:1;stroke-width:0.0654986"
     d="m 96.103356,59.980609 c -0.318848,-0.486623 -0.771405,-1.384345 -0.722517,-1.433233 0.0722,-0.0722 4.074843,-2.218596 4.13728,-2.218596 0.0255,0 0.109657,0.125266 0.187008,0.278369 0.07735,0.153103 0.245295,0.459487 0.373213,0.680854 l 0.23257,0.402485 -2.00778,1.20223 c -1.104278,0.661227 -2.028579,1.210687 -2.054003,1.221024 -0.02542,0.01034 -0.09102,-0.04957 -0.145771,-0.133133 z"
     id="path6212" /><path
     style="fill:#6a6b6d;fill-opacity:1;stroke-width:0.0654986"
     d="m 97.628987,62.345766 c -0.254013,-0.367102 -0.461842,-0.687994 -0.461842,-0.713095 0,-0.05018 3.700565,-2.520952 3.873745,-2.586402 0.0809,-0.03058 0.20555,0.10186 0.50286,0.534327 0.21741,0.316241 0.3819,0.596654 0.36553,0.623142 -0.028,0.04538 -3.571816,2.663456 -3.73993,2.762994 -0.0508,0.03008 -0.241572,-0.189151 -0.540363,-0.620966 z"
     id="path6214" /><path
     style="fill:#6a6b6d;fill-opacity:1;stroke-width:0.0654986"
     d="m 92.691028,61.422035 c -0.195175,-0.333631 -0.413907,-0.72345 -0.48607,-0.866263 l -0.131205,-0.259661 1.547842,-0.83519 c 1.480882,-0.799057 1.71159,-0.90514 1.71159,-0.787011 0,0.02897 0.186163,0.378936 0.413695,0.777692 l 0.413696,0.725012 -1.404828,0.843398 c -0.772656,0.463869 -1.47346,0.880574 -1.557343,0.926012 -0.146974,0.07961 -0.165401,0.06058 -0.507377,-0.523989 z"
     id="path6216" /><path
     style="fill:#6a6b6d;fill-opacity:1;stroke-width:0.0654986"
     d="m 91.084892,58.341173 c -0.29116,-0.6443 -0.550904,-1.295943 -0.525626,-1.318683 0.0139,-0.0125 0.764139,-0.330133 1.667199,-0.705843 l 1.641928,-0.683107 0.306655,0.694987 c 0.16866,0.382242 0.306655,0.724945 0.306655,0.761561 0,0.04856 -2.877429,1.468316 -3.199306,1.578578 -0.02358,0.0081 -0.112458,-0.139294 -0.197505,-0.327493 z"
     id="path6218" /><path
     style="fill:#6a6b6d;fill-opacity:1;stroke-width:0.0654986"
     d="m 89.509803,54.351812 c -0.154122,-0.466988 -0.268134,-0.861157 -0.253359,-0.875931 0.03348,-0.03348 3.414392,-1.077649 3.426763,-1.058327 0.005,0.0077 0.125803,0.35849 0.268559,0.77946 l 0.259556,0.765399 -1.084147,0.393455 c -0.596281,0.216401 -1.366073,0.495056 -1.710649,0.619234 l -0.626501,0.225778 z"
     id="path6220" /><path
     style="fill:#6a6b6d;fill-opacity:1;stroke-width:0.0654986"
     d="m 88.487722,50.777775 c -0.09605,-0.423285 -0.200663,-0.871111 -0.232481,-0.995171 -0.03182,-0.124059 -0.05128,-0.231057 -0.04325,-0.237773 0.008,-0.0067 0.766196,-0.165087 1.684813,-0.351935 0.918618,-0.186848 1.71549,-0.352473 1.770827,-0.368056 0.08066,-0.02271 0.142062,0.156006 0.309595,0.901055 0.114941,0.511163 0.2023,0.934832 0.194131,0.941487 -0.02894,0.02357 -3.381304,0.880001 -3.444647,0.880001 -0.0354,0 -0.142939,-0.346324 -0.238986,-0.769608 z"
     id="path6222" /><path
     style="fill:#6a6b6d;fill-opacity:1;stroke-width:0.0654986"
     d="m 87.770113,46.894687 c -0.06463,-0.505602 -0.100641,-0.936137 -0.08003,-0.956745 0.03935,-0.03935 3.523445,-0.43151 3.554835,-0.400121 0.03843,0.03843 0.240484,1.691858 0.21042,1.721922 -0.03327,0.03327 -3.283048,0.55276 -3.463731,0.553688 -0.08452,4.33e-4 -0.125981,-0.171525 -0.221491,-0.918744 z"
     id="path6224" /><path
     style="fill:#6a6b6d;fill-opacity:1;stroke-width:0.0654986"
     d="m 87.473355,43.706181 c 0,-0.215182 -0.01916,-0.704395 -0.04258,-1.087139 l -0.04258,-0.695898 1.843831,-0.0184 1.843831,-0.0184 -4.1e-5,0.694968 c -2.3e-5,0.382232 0.01801,0.826688 0.04008,0.987679 l 0.04012,0.29271 -1.530213,0.07967 c -0.841618,0.04382 -1.670217,0.09685 -1.841332,0.117861 l -0.311118,0.03819 z"
     id="path6226" /><path
     style="fill:#6a6b6d;fill-opacity:1;stroke-width:0.0654986"
     d="m 88.521332,40.279603 c -0.558375,-0.02357 -1.026733,-0.04749 -1.040795,-0.05316 -0.03375,-0.01361 0.06095,-1.868735 0.09725,-1.905038 0.02484,-0.02485 2.248249,0.13814 3.25454,0.238573 l 0.378788,0.0378 -0.03359,0.36706 c -0.01848,0.201882 -0.05144,0.595485 -0.07326,0.874673 l -0.03966,0.507614 -0.76402,-0.01234 c -0.420211,-0.0068 -1.220872,-0.03162 -1.779248,-0.05519 z"
     id="path6228" /><path
     style="fill:#6a6b6d;fill-opacity:1;stroke-width:0.0654986"
     d="m 89.552935,36.625535 c -1.438072,-0.192602 -1.752009,-0.252841 -1.751653,-0.336113 6.44e-4,-0.150365 0.252771,-1.588218 0.283963,-1.61941 0.01474,-0.01474 0.811531,0.112913 1.770656,0.283665 1.547455,0.27549 1.743865,0.324221 1.743865,0.432663 0,0.241263 -0.213803,1.489196 -0.253838,1.481607 -0.0225,-0.0043 -0.829345,-0.11335 -1.792993,-0.242412 z"
     id="path6230" /><path
     style="fill:#6a6b6d;fill-opacity:1;stroke-width:0.0654986"
     d="m 94.626457,64.479449 c -0.262615,-0.377718 -0.492278,-0.725318 -0.510363,-0.772445 -0.03478,-0.09063 -0.0025,-0.113817 1.848076,-1.325612 l 1.122224,-0.734874 0.463548,0.665184 c 0.254952,0.365851 0.466972,0.690373 0.471157,0.72116 0.008,0.05879 -2.788876,2.14001 -2.870191,2.135786 -0.02583,-0.0013 -0.261835,-0.311481 -0.524451,-0.689199 z"
     id="path6232" /><path
     style="fill:#6a6b6d;fill-opacity:1;stroke-width:0.0654986"
     d="m 96.874346,67.372549 c -0.348936,-0.410287 -0.6745,-0.803184 -0.723474,-0.873105 -0.08286,-0.118297 0.0059,-0.204125 1.27704,-1.235357 0.751347,-0.609525 1.392746,-1.108227 1.425331,-1.108227 0.04946,0 0.605877,0.631311 1.245407,1.41304 l 0.14782,0.180685 -1.326348,1.18447 c -0.729492,0.651458 -1.345473,1.184469 -1.368848,1.184469 -0.02337,0 -0.327992,-0.335689 -0.676928,-0.745975 z"
     id="path6234" /><path
     style="fill:#6a6b6d;fill-opacity:1;stroke-width:0.0654986"
     d="m 99.557406,70.21404 -0.652375,-0.654832 1.269149,-1.227956 c 0.69804,-0.675376 1.2875,-1.235478 1.30991,-1.244672 0.0224,-0.0092 0.29699,0.241338 0.61015,0.556738 l 0.56939,0.573454 -1.1151,1.211724 c -0.6133,0.666448 -1.16542,1.263171 -1.22692,1.32605 -0.106,0.108371 -0.14581,0.08021 -0.764204,-0.540506 z"
     id="path6236" /><path
     style="fill:#6a6b6d;fill-opacity:1;stroke-width:0.0654986"
     d="m 99.942755,65.317627 c -0.499859,-0.559756 -1.012206,-1.213083 -0.992102,-1.265093 0.0097,-0.02519 0.839304,-0.71601 1.843487,-1.535157 l 1.82578,-1.489358 0.17192,0.221097 c 0.0946,0.121604 0.37266,0.454339 0.618,0.739411 0.42755,0.496788 0.44115,0.522984 0.3275,0.630761 -0.2294,0.217533 -3.43201,3.075779 -3.44543,3.074956 -0.007,-4.59e-4 -0.16459,-0.169936 -0.349155,-0.376617 z"
     id="path6238" /><path
     style="fill:#6a6b6d;fill-opacity:1;stroke-width:0.0654986"
     d="m 102.12346,67.640332 c -0.31235,-0.312353 -0.56791,-0.590657 -0.56791,-0.618455 0,-0.0278 0.74889,-0.799004 1.66421,-1.713791 l 1.66421,-1.663251 0.53098,0.481787 c 0.29204,0.264982 0.52317,0.502418 0.51362,0.527635 -0.01,0.02522 -0.65106,0.731157 -1.42558,1.568756 -0.77452,0.837598 -1.49899,1.626929 -1.60992,1.754069 l -0.20169,0.231164 z"
     id="path6240" /><path
     style="fill:#6a6b6d;fill-opacity:1;stroke-width:0.0654986"
     d="m 104.699,69.857299 c -0.34196,-0.268498 -0.62175,-0.518885 -0.62175,-0.556417 0,-0.03753 0.67516,-0.878022 1.50035,-1.867757 1.49823,-1.796963 1.50057,-1.799358 1.64823,-1.68691 0.8498,0.647175 1.00165,0.777544 0.98015,0.841507 -0.0365,0.108619 -2.80057,3.757754 -2.84633,3.757754 -0.0214,0 -0.31868,-0.21968 -0.66065,-0.488177 z"
     id="path6242" /><path
     style="fill:#6a6b6d;fill-opacity:1;stroke-width:0.0654986"
     d="m 102.40703,72.734095 c -0.37825,-0.304583 -0.68773,-0.579995 -0.68773,-0.612027 0,-0.08521 2.21799,-2.753539 2.27646,-2.738663 0.0272,0.0069 0.34207,0.243898 0.69965,0.526597 l 0.65015,0.514 -1.08709,1.434455 c -0.5979,0.78895 -1.10432,1.433323 -1.12539,1.431939 -0.0211,-0.0014 -0.34779,-0.251719 -0.72605,-0.556301 z"
     id="path6244" /><path
     style="fill:#6a6b6d;fill-opacity:1;stroke-width:0.0654986"
     d="m 105.49647,74.953613 -0.74223,-0.485076 0.11999,-0.183332 c 0.066,-0.100833 0.52692,-0.776236 1.02428,-1.500897 l 0.90429,-1.317566 0.66768,0.433232 c 0.36722,0.238278 0.67487,0.437757 0.68366,0.443286 0.0183,0.0115 -1.80955,2.991183 -1.87351,3.054144 -0.0231,0.02271 -0.37594,-0.176998 -0.78416,-0.443791 z"
     id="path6246" /><path
     style="fill:#6a6b6d;fill-opacity:1;stroke-width:0.0654986"
     d="m 107.4769,71.875341 -0.66125,-0.432231 0.79406,-1.154679 c 0.43673,-0.635073 1.04054,-1.51574 1.34179,-1.957036 0.30126,-0.441297 0.571,-0.802358 0.59944,-0.802358 0.12466,0 1.1125,0.684597 1.09528,0.759056 -0.0255,0.110344 -2.43341,4.02098 -2.47531,4.020137 -0.018,-3.62e-4 -0.33032,-0.195162 -0.69401,-0.432889 z"
     id="path6248" /><path
     style="fill:#6a6b6d;fill-opacity:1;stroke-width:0.0654986"
     d="m 108.74402,76.846024 c -0.45931,-0.24177 -0.83511,-0.467497 -0.83511,-0.501617 0,-0.04931 1.59918,-3.010089 1.68028,-3.110918 0.022,-0.02735 1.45269,0.693279 1.55089,0.781171 0.0458,0.04097 -1.47642,3.276327 -1.53959,3.272306 -0.0117,-7.48e-4 -0.39716,-0.199172 -0.85647,-0.440942 z"
     id="path6250" /><path
     style="fill:#6a6b6d;fill-opacity:1;stroke-width:0.0654986"
     d="m 110.44555,73.603279 c -0.4225,-0.221139 -0.76818,-0.430249 -0.76818,-0.464689 0,-0.04858 2.18911,-4.074474 2.25917,-4.154735 0.009,-0.01039 0.32742,0.145661 0.70743,0.346791 l 0.69094,0.365691 -1.04586,2.13977 c -0.57522,1.176873 -1.05249,2.146402 -1.06059,2.154507 -0.008,0.0081 -0.36042,-0.166195 -0.78291,-0.387335 z"
     id="path6252" /><path
     style="fill:#6a6b6d;fill-opacity:1;stroke-width:0.0654986"
     d="m 113.50357,75.017677 -0.72596,-0.293882 0.95446,-2.207389 0.95446,-2.207388 0.70232,0.288405 0.70231,0.288404 -0.084,0.204689 c -0.0462,0.112579 -0.42006,1.111026 -0.83085,2.218771 -0.54328,1.465011 -0.77415,2.012471 -0.84685,2.008176 -0.055,-0.0032 -0.42665,-0.138151 -0.82592,-0.299786 z"
     id="path6254" /><path
     style="fill:#6a6b6d;fill-opacity:1;stroke-width:0.0654986"
     d="m 112.33007,78.492632 c -0.39627,-0.163012 -0.78349,-0.321831 -0.86049,-0.352931 -0.13541,-0.05469 -0.11753,-0.108767 0.54523,-1.649309 0.37688,-0.876021 0.71026,-1.618508 0.74085,-1.649972 0.0314,-0.03233 0.40063,0.07989 0.84887,0.257992 0.62618,0.248809 0.7847,0.336735 0.75261,0.417449 -0.0224,0.05624 -0.30832,0.817004 -0.63547,1.690591 -0.32716,0.873588 -0.61199,1.587041 -0.63297,1.585453 -0.021,-0.0016 -0.36237,-0.136261 -0.75863,-0.299273 z"
     id="path6256" /><path
     style="fill:#6a6b6d;fill-opacity:1;stroke-width:0.0654986"
     d="m 115.83424,79.715182 c -0.69668,-0.212827 -0.81536,-0.26834 -0.7961,-0.372381 0.045,-0.242938 1.01029,-3.202171 1.06346,-3.26012 0.0399,-0.04342 1.36571,0.289631 1.55058,0.389505 0.0326,0.01763 -0.92593,3.501512 -0.96227,3.497345 -0.0203,-0.0023 -0.40537,-0.116787 -0.85567,-0.254349 z"
     id="path6258" /><path
     style="fill:#6a6b6d;fill-opacity:1;stroke-width:0.0654986"
     d="m 116.84279,76.18593 -0.72716,-0.240325 0.73087,-2.259701 c 0.64845,-2.004878 0.74522,-2.257314 0.85816,-2.238531 0.27131,0.04512 1.20798,0.349354 1.20738,0.392159 -0.002,0.167051 -1.23438,4.560337 -1.28217,4.572045 -0.0329,0.0081 -0.38714,-0.09347 -0.78708,-0.225647 z"
     id="path6260" /><path
     style="fill:#6a6b6d;fill-opacity:1;stroke-width:0.0654986"
     d="m 120.15799,77.003354 c -0.47826,-0.09837 -0.69242,-0.171042 -0.70513,-0.239272 -0.0204,-0.109418 0.92538,-4.500079 0.98139,-4.556088 0.0312,-0.03119 1.01963,0.125224 1.30116,0.205906 0.0921,0.02638 0.0571,0.311702 -0.2919,2.386695 -0.32382,1.92501 -0.41497,2.355571 -0.49754,2.350385 -0.0556,-0.0035 -0.41019,-0.06992 -0.78798,-0.147626 z"
     id="path6262" /><path
     style="fill:#6a6b6d;fill-opacity:1;stroke-width:0.0654986"
     d="m 119.42041,80.602481 c -0.3872,-0.08149 -0.72342,-0.167583 -0.74717,-0.191326 -0.037,-0.03703 0.66538,-3.439607 0.72167,-3.4959 0.0289,-0.02885 1.54602,0.283538 1.58983,0.327348 0.0199,0.0199 -0.0927,0.812029 -0.25026,1.760289 -0.33417,2.011411 -0.19017,1.836118 -1.31407,1.599589 z"
     id="path6264" /><path
     style="fill:#6a6b6d;fill-opacity:1;stroke-width:0.0654986"
     d="m 123.00831,81.14044 c -0.32313,-0.03308 -0.5959,-0.06856 -0.60617,-0.07882 -0.0201,-0.02012 0.38406,-3.530716 0.41036,-3.564207 0.009,-0.01109 0.38896,0.01602 0.84501,0.06024 l 0.82919,0.0804 -0.0361,0.332753 c -0.0198,0.183014 -0.066,0.804342 -0.10259,1.38073 -0.0366,0.576387 -0.0842,1.232192 -0.10589,1.457343 l -0.0394,0.409366 -0.30349,-0.0088 c -0.16692,-0.0049 -0.56787,-0.03589 -0.891,-0.06898 z"
     id="path6266" /><path
     style="fill:#6a6b6d;fill-opacity:1;stroke-width:0.0654986"
     d="m 123.53699,77.503656 c -0.35658,-0.04506 -0.66335,-0.09694 -0.6817,-0.115301 -0.0276,-0.02756 0.49965,-4.699345 0.53335,-4.726193 0.006,-0.0047 0.32754,0.02205 0.7148,0.05941 0.42503,0.041 0.70386,0.0963 0.70348,0.139511 -3.5e-4,0.03937 -0.074,1.088449 -0.16359,2.331285 -0.0896,1.242836 -0.16304,2.278371 -0.16312,2.301189 -3.2e-4,0.08601 -0.31574,0.08939 -0.94322,0.0101 z"
     id="path6268" /><path
     style="fill:#6a6b6d;fill-opacity:1;stroke-width:0.0654986"
     d="m 126.33612,75.961979 c 0.0237,-0.945635 0.0432,-2.029209 0.0433,-2.40794 l 1.3e-4,-0.688603 0.75324,-0.0059 0.75323,-0.0059 1.2e-4,0.596217 c 8e-5,0.327918 0.0195,1.414129 0.0433,2.413801 l 0.0431,1.817586 h -0.83977 -0.83978 z"
     id="path6270" /><path
     style="fill:#6a6b6d;fill-opacity:1;stroke-width:0.0654986"
     d="m 126.23131,80.022891 c 0.0105,-0.72949 0.0359,-1.540035 0.0565,-1.801211 l 0.0374,-0.474864 h 0.80913 0.80913 l 0.0349,0.278369 c 0.0192,0.153103 0.0448,0.963647 0.057,1.801211 l 0.0221,1.522842 h -0.9226 -0.9226 z"
     id="path6272" /><path
     style="fill:#6a6b6d;fill-opacity:1;stroke-width:0.0654986"
     d="m 129.77846,77.542953 c -0.004,-0.01396 -0.0852,-1.090249 -0.18079,-2.391752 l -0.17382,-2.36637 0.68693,-0.06947 c 0.37781,-0.03821 0.6957,-0.06069 0.70643,-0.04997 0.0107,0.01073 0.13628,1.003699 0.27901,2.206599 0.14272,1.2029 0.27316,2.264609 0.28988,2.359354 0.0275,0.15575 0.007,0.175838 -0.21203,0.209561 -0.36563,0.05626 -1.38765,0.13099 -1.39561,0.102048 z"
     id="path6274" /><path
     style="fill:#6a6b6d;fill-opacity:1;stroke-width:0.0654986"
     d="m 130.01969,81.070869 c -0.0439,-0.214055 -0.25314,-3.392557 -0.22513,-3.420172 0.0326,-0.03213 1.56973,-0.18088 1.59586,-0.154435 0.0249,0.02519 0.42547,3.273969 0.42547,3.45064 0,0.106301 -0.0908,0.130357 -0.74069,0.196245 -1.00702,0.102093 -1.01991,0.10121 -1.05551,-0.07228 z"
     id="path6276" /><path
     style="fill:#6a6b6d;fill-opacity:1;stroke-width:0.0654986"
     d="m 133.16277,77.078584 c -0.046,-0.145547 -0.75739,-4.416577 -0.75739,-4.547422 0,-0.104886 0.0969,-0.14167 0.63286,-0.24026 0.34808,-0.06403 0.65375,-0.0932 0.67927,-0.06482 0.0389,0.04325 0.96741,4.246574 1.00176,4.534919 0.008,0.06836 -0.13528,0.125083 -0.51268,0.202749 -0.98053,0.201786 -1.01511,0.20559 -1.04382,0.11483 z"
     id="path6278" /><path
     style="fill:#6a6b6d;fill-opacity:1;stroke-width:0.0654986"
     d="m 133.74969,80.612379 c -0.11441,-0.500924 -0.55599,-3.348223 -0.5242,-3.380014 0.0466,-0.04656 1.49519,-0.332097 1.52834,-0.301247 0.0128,0.0119 0.19268,0.797155 0.39976,1.745013 0.35118,1.607441 0.36856,1.726461 0.25829,1.769217 -0.11019,0.04273 -1.47484,0.314076 -1.58066,0.314301 -0.0263,5.6e-5 -0.063,-0.06622 -0.0815,-0.14727 z"
     id="path6280" /><path
     style="fill:#6a6b6d;fill-opacity:1;stroke-width:0.0654986"
     d="m 136.46829,76.18479 c -0.82103,-3.01742 -1.16818,-4.371085 -1.12993,-4.406116 0.0566,-0.05181 1.26648,-0.400472 1.29156,-0.37219 0.0311,0.03513 1.47077,4.531277 1.45569,4.546318 -0.008,0.008 -0.36057,0.1173 -0.78342,0.242868 l -0.76881,0.228305 z"
     id="path6282" /><path
     style="fill:#6a6b6d;fill-opacity:1;stroke-width:0.0654986"
     d="m 137.03087,78.282695 c -0.24618,-0.921356 -0.45998,-1.707445 -0.47511,-1.746864 -0.0227,-0.05923 1.35136,-0.512211 1.52715,-0.503442 0.0404,0.002 0.98057,2.797207 1.09911,3.267709 0.0385,0.152671 7.5e-4,0.168125 -1.37453,0.563259 l -0.32902,0.09453 z"
     id="path6284" /><path
     style="fill:#6a6b6d;fill-opacity:1;stroke-width:0.0654986"
     d="m 138.96227,73.144661 c -0.44644,-1.197322 -0.80971,-2.206423 -0.80727,-2.242447 0.006,-0.08888 1.20625,-0.570364 1.2664,-0.508028 0.10938,0.113374 1.88035,4.310919 1.8372,4.354514 -0.0628,0.06339 -1.32295,0.574911 -1.41359,0.573789 -0.0391,-4.85e-4 -0.4363,-0.980507 -0.88274,-2.177828 z"
     id="path6286" /><path
     style="fill:#6a6b6d;fill-opacity:1;stroke-width:0.0654986"
     d="m 140.47833,77.206452 c -0.32716,-0.873587 -0.61318,-1.634502 -0.6356,-1.690922 -0.0322,-0.08091 0.12072,-0.167839 0.72366,-0.411465 0.42044,-0.169885 0.7713,-0.30057 0.77969,-0.29041 0.0611,0.07407 1.411,3.279561 1.38992,3.300642 -0.0221,0.02214 -1.62138,0.680496 -1.65301,0.680496 -0.005,0 -0.27751,-0.714753 -0.60466,-1.588341 z"
     id="path6288" /><path
     style="fill:#6a6b6d;fill-opacity:1;stroke-width:0.0654986"
     d="m 141.81513,71.874186 c -0.5705,-1.173179 -1.01262,-2.155434 -0.98248,-2.182788 0.0933,-0.08467 1.27081,-0.673532 1.295,-0.64761 0.0126,0.01346 0.48598,0.864485 1.05204,1.891175 0.56607,1.02669 1.0842,1.962711 1.15139,2.080045 l 0.12217,0.213335 -0.78304,0.392527 c -0.43067,0.21589 -0.79086,0.391141 -0.80042,0.389448 -0.01,-0.0017 -0.48416,-0.962953 -1.05466,-2.136132 z"
     id="path6290" /><path
     style="fill:#6a6b6d;fill-opacity:1;stroke-width:0.0654986"
     d="m 144.39585,77.135696 c -0.0319,-0.08395 -0.38401,-0.804063 -0.78242,-1.600258 l -0.72438,-1.447629 0.7567,-0.397448 c 0.41619,-0.218597 0.77638,-0.397307 0.80041,-0.397133 0.024,1.74e-4 0.3309,0.523344 0.68191,1.1626 0.35101,0.639256 0.74038,1.344907 0.86527,1.568114 l 0.22707,0.40583 -0.84421,0.429277 c -0.46432,0.236102 -0.86179,0.429277 -0.88327,0.429277 -0.0215,0 -0.0652,-0.06868 -0.0971,-0.15263 z"
     id="path6292" /><path
     style="fill:#6a6b6d;fill-opacity:1;stroke-width:0.0654986"
     d="m 144.61147,70.329187 -1.25387,-2.041923 0.56613,-0.365616 c 0.31138,-0.201088 0.60082,-0.386832 0.64322,-0.412764 0.0504,-0.03085 0.52284,0.604074 1.36667,1.836837 0.70928,1.036192 1.32836,1.925105 1.37573,1.975362 0.0726,0.07697 -0.0311,0.167318 -0.65775,0.573113 -0.40914,0.264955 -0.75342,0.480651 -0.76507,0.479325 -0.0117,-0.0013 -0.58543,-0.921276 -1.27506,-2.044334 z"
     id="path6294" /><path
     style="fill:#6a6b6d;fill-opacity:1;stroke-width:0.0654986"
     d="m 146.97882,74.167503 c -0.43229,-0.708481 -0.84831,-1.394049 -0.92448,-1.523485 l -0.1385,-0.235337 0.73781,-0.466262 0.73782,-0.466262 0.1895,0.269766 c 0.10422,0.148372 0.56265,0.817825 1.01872,1.487674 l 0.82922,1.217907 -0.73185,0.478582 c -0.40251,0.26322 -0.77693,0.489153 -0.83205,0.502073 -0.0698,0.01637 -0.3385,-0.367044 -0.88619,-1.264656 z"
     id="path6296" /><path
     style="fill:#6a6b6d;fill-opacity:1;stroke-width:0.0654986"
     d="m 147.25816,68.530178 -1.42362,-1.927343 0.60226,-0.476412 0.60226,-0.476411 1.52546,1.83001 c 0.83901,1.006505 1.50798,1.858306 1.4866,1.892891 -0.0392,0.06347 -1.1824,0.983309 -1.30384,1.049115 -0.036,0.01952 -0.70613,-0.831811 -1.48912,-1.89185 z"
     id="path6298" /><path
     style="fill:#6a6b6d;fill-opacity:1;stroke-width:0.0654986"
     d="m 149.80191,71.958161 c -0.57099,-0.772287 -1.04186,-1.416939 -1.04639,-1.43256 -0.005,-0.01562 0.29877,-0.272987 0.67401,-0.571925 0.46861,-0.373328 0.70796,-0.52527 0.76436,-0.485228 0.17748,0.125998 2.25276,2.660099 2.22081,2.711799 -0.0558,0.0902 -1.4099,1.143849 -1.49564,1.163744 -0.0435,0.01008 -0.54617,-0.613542 -1.11715,-1.38583 z"
     id="path6300" /><path
     style="fill:#6a6b6d;fill-opacity:1;stroke-width:0.0654986"
     d="m 149.65294,66.530151 -1.58328,-1.784804 0.56806,-0.537336 c 0.31242,-0.295536 0.59128,-0.538699 0.61968,-0.540364 0.0284,-0.0017 0.80946,0.749434 1.73571,1.669109 l 1.68408,1.672135 -0.68773,0.653007 c -0.37826,0.359155 -0.70248,0.653019 -0.72049,0.653032 -0.018,1.4e-5 -0.74522,-0.803137 -1.61603,-1.784779 z"
     id="path6302" /><path
     style="fill:#6a6b6d;fill-opacity:1;stroke-width:0.0654986"
     d="m 152.51345,69.757543 c -0.63043,-0.717087 -1.14623,-1.332617 -1.14623,-1.367845 0,-0.03523 0.30254,-0.349454 0.67232,-0.69828 l 0.67231,-0.634227 1.03065,0.983491 c 0.56686,0.54092 1.14854,1.106872 1.29264,1.257671 l 0.262,0.27418 -0.78599,0.746665 c -0.43229,0.410666 -0.80072,0.745647 -0.81873,0.744402 -0.018,-0.0012 -0.54855,-0.588971 -1.17897,-1.306057 z"
     id="path6304" /><path
     style="fill:#6a6b6d;fill-opacity:1;stroke-width:0.0654986"
     d="m 152.19918,64.293676 c -0.87532,-0.801387 -1.66403,-1.529604 -1.75269,-1.618259 l -0.16119,-0.161192 0.45694,-0.540098 c 0.25131,-0.297055 0.46901,-0.546648 0.48377,-0.554653 0.0395,-0.02143 3.71088,2.972605 3.71088,3.026271 0,0.05779 -1.03775,1.278092 -1.10002,1.29354 -0.0254,0.0063 -0.76237,-0.644222 -1.63769,-1.445609 z"
     id="path6306" /><path
     style="fill:#6a6b6d;fill-opacity:1;stroke-width:0.0654986"
     d="m 155.42663,67.222852 c -0.61158,-0.556226 -1.20973,-1.107875 -1.32921,-1.225887 l -0.21725,-0.214567 0.54474,-0.629621 c 0.2996,-0.346292 0.56045,-0.638577 0.57966,-0.649523 0.0192,-0.01094 0.66034,0.490053 1.42475,1.113329 l 1.38983,1.13323 -0.40392,0.471485 c -0.22215,0.259317 -0.51027,0.593298 -0.64027,0.74218 l -0.23636,0.270694 z"
     id="path6308" /><path
     style="fill:#6a6b6d;fill-opacity:1;stroke-width:0.0654986"
     d="m 154.00622,61.803492 c -1.03422,-0.795602 -1.88161,-1.470687 -1.88308,-1.500187 -0.002,-0.04842 0.71948,-1.105195 0.85479,-1.25131 0.0331,-0.0357 0.87433,0.484478 2.05333,1.269614 l 1.99733,1.330088 -0.45755,0.662595 c -0.25164,0.364426 -0.50858,0.724054 -0.57098,0.799172 -0.11237,0.135295 -0.13111,0.12298 -1.99384,-1.309972 z"
     id="path6310" /><path
     style="fill:#6a6b6d;fill-opacity:1;stroke-width:0.0654986"
     d="m 157.36109,64.383034 c -0.73808,-0.572777 -1.35078,-1.06784 -1.36155,-1.100141 -0.0146,-0.04385 0.92503,-1.431291 1.06233,-1.568589 0.0211,-0.02111 2.81975,1.834213 2.94171,1.950175 0.066,0.0628 -1.12329,1.770617 -1.22866,1.764285 -0.0395,-0.0024 -0.67575,-0.472954 -1.41383,-1.04573 z"
     id="path6312" /><path
     style="fill:#6a6b6d;fill-opacity:1;stroke-width:0.0654986"
     d="m 155.85387,58.911638 c -1.09874,-0.666277 -1.99089,-1.232613 -1.98256,-1.258525 0.008,-0.02591 0.16415,-0.316083 0.34626,-0.644827 l 0.33113,-0.597717 2.07718,1.111527 c 1.14245,0.61134 2.09708,1.130844 2.12139,1.154454 0.0615,0.05968 -0.72609,1.451686 -0.81971,1.448824 -0.0418,-0.0013 -0.97495,-0.547459 -2.07369,-1.213736 z"
     id="path6314" /><path
     style="fill:#6a6b6d;fill-opacity:1;stroke-width:0.0654986"
     d="m 159.55454,61.143356 c -0.79253,-0.484321 -1.46953,-0.891022 -1.50444,-0.90378 -0.0349,-0.01276 0.0572,-0.227366 0.20458,-0.476904 0.14742,-0.249539 0.33133,-0.578973 0.40867,-0.732076 0.0773,-0.153103 0.16627,-0.278369 0.19762,-0.278369 0.0548,0 3.07095,1.602314 3.13304,1.664405 0.0472,0.04716 -0.85916,1.609538 -0.933,1.608356 -0.036,-5.77e-4 -0.71393,-0.397311 -1.50647,-0.881632 z"
     id="path6316" /><path
     style="fill:#6a6b6d;fill-opacity:1;stroke-width:0.0654986"
     d="m 157.41223,56.147756 c -1.17827,-0.566885 -2.14376,-1.060174 -2.14552,-1.096199 -0.004,-0.0919 0.53705,-1.277591 0.58259,-1.275546 0.0205,9.22e-4 1.00998,0.41007 2.19878,0.909219 1.8646,0.782904 2.1595,0.925504 2.14726,1.038318 -0.008,0.07193 -0.15517,0.428704 -0.32749,0.792841 l -0.31331,0.662068 z"
     id="path6318" /><path
     style="fill:#6a6b6d;fill-opacity:1;stroke-width:0.0654986"
     d="m 161.20838,57.981638 c -0.85557,-0.417683 -1.55559,-0.783415 -1.55559,-0.812739 0,-0.07788 0.59086,-1.38637 0.65734,-1.455724 0.0329,-0.03433 0.73347,0.223011 1.68088,0.617451 0.89344,0.371974 1.63176,0.680875 1.64071,0.686446 0.0209,0.01301 -0.46179,1.126774 -0.6379,1.471988 -0.0738,0.144742 -0.15577,0.260655 -0.18205,0.257584 -0.0263,-0.0031 -0.74781,-0.347323 -1.60339,-0.765006 z"
     id="path6320" /><path
     style="fill:#6a6b6d;fill-opacity:1;stroke-width:0.0654986"
     d="m 158.57206,53.234787 c -1.18879,-0.434002 -2.17486,-0.800758 -2.19124,-0.815013 -0.0164,-0.01425 0.0803,-0.360483 0.2149,-0.769394 l 0.24469,-0.743475 0.60383,0.188285 c 0.33211,0.103557 1.34069,0.414481 2.2413,0.690944 0.90061,0.276462 1.66172,0.523676 1.69136,0.549363 0.10452,0.09059 -0.43645,1.705403 -0.5677,1.694609 -0.0416,-0.0034 -1.04834,-0.361316 -2.23714,-0.795319 z"
     id="path6322" /><path
     style="fill:#6a6b6d;fill-opacity:1;stroke-width:0.0654986"
     d="m 162.56392,54.677553 -1.64101,-0.595951 0.29612,-0.863079 0.29613,-0.86308 0.59166,0.184912 c 0.32541,0.101701 1.09272,0.337859 1.70513,0.524795 0.61241,0.186935 1.12169,0.34522 1.13172,0.351742 0.0481,0.03126 -0.61357,1.863437 -0.67181,1.860261 -0.0368,-0.002 -0.80538,-0.271827 -1.70794,-0.5996 z"
     id="path6324" /><path
     style="fill:#6a6b6d;fill-opacity:1;stroke-width:0.0654986"
     d="m 163.54008,51.364301 c -1.55682,-0.408301 -1.64459,-0.439437 -1.59717,-0.566596 0.0276,-0.074 0.13398,-0.512611 0.23641,-0.974683 0.17007,-0.767176 0.19785,-0.837669 0.31995,-0.811777 0.0735,0.01559 0.84109,0.169527 1.70567,0.342072 0.86458,0.172545 1.6,0.33892 1.63425,0.369722 0.0389,0.03498 0.006,0.307993 -0.087,0.727303 -0.24562,1.104587 -0.33145,1.359828 -0.4548,1.352519 -0.0605,-0.0036 -0.85128,-0.200936 -1.75732,-0.43856 z"
     id="path6326" /><path
     style="fill:#6a6b6d;fill-opacity:1;stroke-width:0.0654986"
     d="m 159.55454,50.333511 c -1.15277,-0.301677 -2.16141,-0.564956 -2.24141,-0.585064 -0.11966,-0.03008 -0.13562,-0.06256 -0.09,-0.183164 0.0305,-0.08063 0.123,-0.463453 0.20551,-0.850713 0.0825,-0.387261 0.16721,-0.702995 0.18821,-0.701632 0.021,0.0014 1.08453,0.217528 2.36339,0.480368 2.62888,0.540303 2.37613,0.416388 2.22148,1.08912 -0.26131,1.136732 -0.31973,1.310311 -0.43916,1.30478 -0.0617,-0.0029 -1.05528,-0.252018 -2.20806,-0.553695 z"
     id="path6328" /><path
     style="fill:#6a6b6d;fill-opacity:1;stroke-width:0.0654986"
     d="m 164.33594,47.483133 c -0.86458,-0.13925 -1.58928,-0.254414 -1.61044,-0.255919 -0.0212,-0.0015 3.1e-4,-0.260638 0.0477,-0.57585 0.0474,-0.315212 0.0868,-0.667164 0.0876,-0.782117 7.8e-4,-0.114953 0.0316,-0.227685 0.0686,-0.250516 0.0769,-0.04753 3.48218,0.292679 3.5415,0.353824 0.0353,0.03642 -0.0733,1.037127 -0.16967,1.56304 -0.0489,0.267133 0.0325,0.269308 -1.96528,-0.05246 z"
     id="path6330" /><path
     style="fill:#6a6b6d;fill-opacity:1;stroke-width:0.0654986"
     d="m 160.20953,46.84789 c -1.26085,-0.199018 -2.30114,-0.368957 -2.31176,-0.377642 -0.0106,-0.0087 0.0179,-0.328863 0.0633,-0.711507 0.0809,-0.681031 0.0861,-0.695625 0.24856,-0.691368 0.0913,0.0024 1.16805,0.113468 2.39287,0.246836 l 2.22695,0.242487 0.002,0.16253 c 0.001,0.08939 -0.0335,0.407703 -0.0772,0.70736 -0.0437,0.299656 -0.0685,0.601768 -0.0551,0.67136 0.0167,0.08665 -0.0106,0.124209 -0.0865,0.119163 -0.061,-0.0041 -1.14246,-0.1702 -2.40331,-0.369219 z"
     id="path6332" /><path
     style="fill:#6a6b6d;fill-opacity:1;stroke-width:0.0654986"
     d="m 164.92543,43.978511 c -0.68446,-0.04585 -1.38879,-0.08587 -1.56517,-0.08892 l -0.32068,-0.0055 0.0463,-0.833646 c 0.0255,-0.458506 0.0566,-0.843916 0.0691,-0.856467 0.0125,-0.01255 0.8213,-0.0015 1.79721,0.02454 l 1.7744,0.04736 -4.7e-4,0.465234 c -2.5e-4,0.25588 -0.0192,0.664187 -0.0422,0.907351 l -0.0418,0.442115 -0.23615,-0.0093 c -0.12988,-0.0051 -0.79616,-0.04685 -1.48062,-0.0927 z"
     id="path6334" /><path
     style="fill:#6a6b6d;fill-opacity:1;stroke-width:0.0654986"
     d="m 160.50427,43.718029 c -1.27886,-0.08166 -2.3252,-0.151335 -2.3252,-0.154838 0,-0.0035 0.009,-0.335039 0.0206,-0.736749 l 0.0206,-0.730381 0.7326,0.04221 c 0.40292,0.02322 1.49319,0.04235 2.42282,0.04251 l 1.69023,2.98e-4 -0.0117,0.682457 c -0.0136,0.793995 -0.0479,1.023875 -0.15058,1.011731 -0.0408,-0.0048 -1.12058,-0.07559 -2.39944,-0.157245 z"
     id="path6336" /><path
     style="fill:#6a6b6d;fill-opacity:1;stroke-width:0.0654986"
     d="m 163.03966,39.522436 c -0.0219,-0.462713 -0.03,-0.851011 -0.0182,-0.862884 0.0119,-0.01187 0.71038,-0.07843 1.55224,-0.147902 0.84186,-0.06947 1.63917,-0.13869 1.7718,-0.153814 l 0.24114,-0.0275 0.0347,0.402533 c 0.0191,0.221393 0.0494,0.642343 0.0674,0.935446 l 0.0327,0.532914 -0.47224,0.03876 c -0.25973,0.02132 -1.07918,0.05788 -1.82099,0.08125 l -1.34875,0.04249 z"
     id="path6338" /><path
     style="fill:#6a6b6d;fill-opacity:1;stroke-width:0.0654986"
     d="m 158.18912,40.102688 c -0.0564,-0.596828 -0.0536,-1.065525 0.006,-1.065575 0.027,-2.3e-5 1.09323,-0.08822 2.36937,-0.195994 1.27613,-0.107774 2.33284,-0.183354 2.34823,-0.167957 0.0445,0.04452 0.15747,1.618494 0.11891,1.657051 -0.0191,0.01913 -0.72095,0.05848 -1.5596,0.08744 -0.83865,0.02896 -1.91105,0.06969 -2.3831,0.0905 l -0.85827,0.03784 z"
     id="path6340" /><path
     style="fill:#6a6b6d;fill-opacity:1;stroke-width:0.0654986"
     d="m 162.76738,36.662831 c -0.0194,-0.117079 -0.0792,-0.476212 -0.13279,-0.798073 -0.0536,-0.321861 -0.0869,-0.595811 -0.0739,-0.608778 0.0223,-0.02231 3.03317,-0.573714 3.37879,-0.618785 0.16021,-0.02089 0.16456,-0.0086 0.30505,0.863036 0.0784,0.486327 0.1319,0.895127 0.11891,0.908445 -0.0261,0.02682 -3.27139,0.465802 -3.44909,0.466553 -0.0752,3.18e-4 -0.12317,-0.069 -0.14693,-0.212398 z"
     id="path6342" /><path
     style="fill:#6a6b6d;fill-opacity:1;stroke-width:0.0654986"
     d="m 157.89328,37.128594 c -0.13208,-0.758777 -0.15863,-1.038876 -0.0985,-1.038876 0.0691,0 4.31034,-0.766652 4.5226,-0.817503 0.15442,-0.03699 0.20496,0.05127 0.25351,0.442751 0.0144,0.116053 0.0605,0.425443 0.10249,0.687532 0.042,0.26209 0.0648,0.485568 0.0507,0.496617 -0.0141,0.01105 -0.99828,0.146218 -2.18708,0.300375 -1.1888,0.154157 -2.25365,0.295013 -2.36633,0.313014 l -0.20488,0.03273 z"
     id="path6344" /><path
     style="fill:#6a6b6d;fill-opacity:1;stroke-width:0.0654986"
     d="m 161.96121,32.684235 -0.19681,-0.785541 0.43429,-0.128258 c 1.06727,-0.315198 3.03913,-0.858843 3.05217,-0.841488 0.0699,0.093 0.42571,1.715828 0.38408,1.751617 -0.0546,0.04695 -3.26432,0.792301 -3.40319,0.790282 -0.0406,-5.9e-4 -0.1623,-0.354565 -0.27054,-0.786612 z"
     id="path6346" /><path
     style="fill:#6a6b6d;fill-opacity:1;stroke-width:0.0654986"
     d="m 157.39464,34.501378 c -0.0149,-0.04503 -0.097,-0.352091 -0.18249,-0.682356 l -0.1554,-0.600483 1.41264,-0.398023 c 0.77696,-0.218913 1.82,-0.513068 2.31787,-0.653679 0.78221,-0.220915 0.91054,-0.241816 0.94431,-0.153807 0.0458,0.119359 0.39695,1.485151 0.38532,1.4987 -0.0118,0.01377 -4.60587,1.071521 -4.65385,1.071521 -0.0227,0 -0.0535,-0.03684 -0.0684,-0.08187 z"
     id="path6348" /><path
     style="fill:#6a6b6d;fill-opacity:1;stroke-width:0.0654986"
     d="m 160.95914,29.431737 c -0.15108,-0.411884 -0.26364,-0.75829 -0.25015,-0.769792 0.12102,-0.103172 3.29874,-1.277701 3.34141,-1.235033 0.0614,0.06139 0.57818,1.44993 0.57948,1.55699 4.4e-4,0.03645 -0.76349,0.320626 -1.69763,0.631497 l -1.69843,0.565219 z"
     id="path6350" /><path
     style="fill:#6a6b6d;fill-opacity:1;stroke-width:0.0654986"
     d="m 156.36182,31.074774 -0.23323,-0.626539 0.14101,-0.06067 c 0.0776,-0.03337 1.08335,-0.428706 2.23509,-0.878531 2.02076,-0.789229 2.20803,-0.841204 2.23702,-0.620887 0.004,0.03422 0.0155,0.07696 0.0246,0.09497 0.009,0.01801 0.0226,0.05485 0.0302,0.08187 0.008,0.02702 0.0328,0.09334 0.056,0.147372 0.12532,0.292153 0.29604,0.953246 0.25554,0.989523 -0.0459,0.0411 -4.39746,1.499423 -4.4742,1.499423 -0.0213,0 -0.14371,-0.281942 -0.27199,-0.626539 z"
     id="path6352" /><path
     style="fill:#6a6b6d;fill-opacity:1;stroke-width:0.0654986"
     d="m 159.61261,26.209976 -0.33195,-0.70994 1.60314,-0.800775 c 0.88172,-0.440426 1.62467,-0.776757 1.65099,-0.747403 0.0801,0.08937 0.74325,1.526542 0.71451,1.548579 -0.0782,0.05999 -3.18111,1.42127 -3.23775,1.42045 -0.0368,-5.34e-4 -0.21636,-0.320443 -0.39894,-0.710911 z"
     id="path6354" /><path
     style="fill:#6a6b6d;fill-opacity:1;stroke-width:0.0654986"
     d="m 155.21273,28.34707 c -0.15449,-0.328247 -0.25765,-0.617828 -0.22924,-0.643513 0.1051,-0.09502 4.19424,-2.15911 4.27739,-2.15911 0.0474,0 0.0683,0.01793 0.0464,0.03984 -0.0219,0.02191 0.0884,0.294548 0.24519,0.605862 0.15676,0.311315 0.29504,0.622699 0.30728,0.691965 0.019,0.107368 -0.29645,0.26894 -2.13919,1.095742 -1.1888,0.533392 -2.17619,0.968955 -2.1942,0.967917 -0.018,-10e-4 -0.15915,-0.270451 -0.31365,-0.598698 z"
     id="path6356" /><path
     style="fill:#6a6b6d;fill-opacity:1;stroke-width:0.0654986"
     d="m 157.992,23.197187 c -0.31608,-0.522776 -0.40331,-0.716773 -0.34685,-0.771385 0.0415,-0.04013 0.72754,-0.485367 1.52457,-0.98942 l 1.44914,-0.91646 0.46598,0.788184 c 0.25628,0.433501 0.45893,0.793948 0.45032,0.800992 -0.009,0.007 -0.71434,0.411892 -1.56827,0.899661 l -1.55262,0.886852 z"
     id="path6358" /><path
     style="fill:#6a6b6d;fill-opacity:1;stroke-width:0.0654986"
     d="m 153.80559,25.702074 c -0.26709,-0.444536 -0.34469,-0.624856 -0.28841,-0.670179 0.0797,-0.06422 3.39153,-2.165716 3.75253,-2.38117 0.18914,-0.112884 0.45771,-0.105264 0.38589,0.01095 -0.0173,0.02801 0.024,0.121412 0.0917,0.207548 0.15527,0.197397 0.61923,1.037678 0.58689,1.062913 -0.0133,0.01035 -0.95542,0.549662 -2.09366,1.198467 l -2.06953,1.179643 z"
     id="path6360" /><path
     style="fill:#6a6b6d;fill-opacity:1;stroke-width:0.0654986"
     d="m 156.05845,20.298578 c -0.40323,-0.551219 -0.46824,-0.674151 -0.39299,-0.74308 0.43442,-0.397934 2.76572,-2.135246 2.80632,-2.091308 0.24006,0.259794 1.04164,1.432344 1.00214,1.465929 -0.0973,0.08269 -2.89003,2.029424 -2.91105,2.029186 -0.0117,-1.31e-4 -0.23868,-0.29746 -0.50442,-0.660727 z"
     id="path6362" /><path
     style="fill:#6a6b6d;fill-opacity:1;stroke-width:0.0654986"
     d="m 152.2187,23.312282 c -0.18012,-0.251915 -0.36488,-0.51131 -0.41057,-0.576434 -0.0752,-0.107116 0.0947,-0.256772 1.78172,-1.569591 1.02564,-0.798151 1.89036,-1.451184 1.9216,-1.451184 0.0664,0 0.20807,0.161036 0.57735,0.65626 0.50761,0.680744 0.67581,0.460357 -1.54406,2.023172 -1.07926,0.759814 -1.97045,1.380203 -1.98042,1.378642 -0.01,-0.0016 -0.1655,-0.20895 -0.34562,-0.460865 z"
     id="path6364" /><path
     style="fill:#6a6b6d;fill-opacity:1;stroke-width:0.0654986"
     d="m 153.85418,17.602131 -0.52598,-0.599353 1.31196,-1.237968 1.31196,-1.237968 0.60454,0.645533 c 0.3325,0.355043 0.60514,0.665063 0.60587,0.688935 0.002,0.0586 -2.66638,2.348244 -2.73119,2.343735 -0.0282,-0.002 -0.28787,-0.273269 -0.57716,-0.602914 z"
     id="path6366" /><path
     style="fill:#6a6b6d;fill-opacity:1;stroke-width:0.0654986"
     d="m 150.24828,20.870914 -0.46395,-0.533605 1.74118,-1.643781 c 1.37565,-1.29871 1.76179,-1.630128 1.83942,-1.578742 0.12937,0.08565 0.9074,0.992651 0.95266,1.110588 0.0231,0.06032 -0.56473,0.606843 -1.71367,1.593116 -0.96189,0.825714 -1.78102,1.520363 -1.82029,1.543664 -0.0398,0.0236 -0.27686,-0.193941 -0.53535,-0.49124 z"
     id="path6368" /><path
     style="fill:#6a6b6d;fill-opacity:1;stroke-width:0.0654986"
     d="m 151.44028,15.16331 -0.58193,-0.549952 1.17142,-1.342558 c 0.64427,-0.738407 1.18846,-1.344246 1.2093,-1.346308 0.0657,-0.0065 1.27208,1.115957 1.27208,1.183639 0,0.06284 -2.39093,2.595675 -2.45619,2.601972 -0.018,0.0017 -0.29462,-0.244319 -0.61468,-0.546793 z"
     id="path6370" /><path
     style="fill:#6a6b6d;fill-opacity:1;stroke-width:0.0654986"
     d="m 148.1295,18.737547 -0.48678,-0.447835 0.22479,-0.266536 c 0.59506,-0.705596 2.91418,-3.342828 2.94317,-3.346884 0.0479,-0.0067 1.07068,0.91621 1.13458,1.023819 0.039,0.06575 -0.40409,0.562973 -1.59617,1.790996 -0.90761,0.934987 -1.66879,1.698694 -1.69151,1.697126 -0.0227,-0.0016 -0.26035,-0.204377 -0.52808,-0.450686 z"
     id="path6372" /></svg>
